<?xml version="1.0" encoding="us-ascii" standalone="no"?><svg xmlns="http://www.w3.org/2000/svg" xmlns:xlink="http://www.w3.org/1999/xlink" contentStyleType="text/css" height="602px" preserveAspectRatio="none" style="width:577px;height:602px;background:#FFFFFF;" version="1.1" viewBox="0 0 577 602" width="577px" zoomAndPan="magnify"><defs/><g><rect fill="none" height="373.8594" style="stroke:#000000;stroke-width:1.5;" width="560.5" x="10" y="129.9609"/><rect fill="none" height="295.3203" style="stroke:#000000;stroke-width:1.5;" width="540.5" x="20" y="155.3125"/><rect fill="none" height="216.7813" style="stroke:#000000;stroke-width:1.5;" width="520.5" x="30" y="180.6641"/><rect fill="none" height="138.2422" style="stroke:#000000;stroke-width:1.5;" width="500.5" x="40" y="206.0156"/><line style="stroke:#181818;stroke-width:0.5;stroke-dasharray:5.0,5.0;" x1="71" x2="71" y1="82.6094" y2="520.8203"/><line style="stroke:#181818;stroke-width:0.5;stroke-dasharray:5.0,5.0;" x1="307" x2="307" y1="82.6094" y2="520.8203"/><text fill="#000000" font-family="sans-serif" font-size="14" lengthAdjust="spacing" textLength="37" x="50" y="79.5332">Caller</text><ellipse cx="71.5" cy="13.5" fill="#E2E2F0" rx="8" ry="8" style="stroke:#181818;stroke-width:0.5;"/><path d="M71.5,21.5 L71.5,48.5 M58.5,29.5 L84.5,29.5 M71.5,48.5 L58.5,63.5 M71.5,48.5 L84.5,63.5 " fill="none" style="stroke:#181818;stroke-width:0.5;"/><text fill="#000000" font-family="sans-serif" font-size="14" lengthAdjust="spacing" textLength="37" x="50" y="534.3535">Caller</text><ellipse cx="71.5" cy="545.9297" fill="#E2E2F0" rx="8" ry="8" style="stroke:#181818;stroke-width:0.5;"/><path d="M71.5,553.9297 L71.5,580.9297 M58.5,561.9297 L84.5,561.9297 M71.5,580.9297 L58.5,595.9297 M71.5,580.9297 L84.5,595.9297 " fill="none" style="stroke:#181818;stroke-width:0.5;"/><rect fill="#E2E2F0" height="31.6094" rx="2.5" ry="2.5" style="stroke:#181818;stroke-width:0.5;" width="111" x="252" y="50"/><text fill="#000000" font-family="sans-serif" font-size="14" lengthAdjust="spacing" textLength="97" x="259" y="71.5332">MemberModule</text><rect fill="#E2E2F0" height="31.6094" rx="2.5" ry="2.5" style="stroke:#181818;stroke-width:0.5;" width="111" x="252" y="519.8203"/><text fill="#000000" font-family="sans-serif" font-size="14" lengthAdjust="spacing" textLength="97" x="259" y="541.3535">MemberModule</text><polygon fill="#181818" points="295.5,110.9609,305.5,114.9609,295.5,118.9609,299.5,114.9609" style="stroke:#181818;stroke-width:1.0;"/><line style="stroke:#181818;stroke-width:1.0;" x1="71.5" x2="301.5" y1="114.9609" y2="114.9609"/><text fill="#000000" font-family="sans-serif" font-size="13" font-weight="bold" lengthAdjust="spacing" textLength="7" x="78.5" y="110.1045">1</text><text fill="#000000" font-family="sans-serif" font-size="13" lengthAdjust="spacing" textLength="201" x="89.5" y="110.1045">cancelMembership(memberWallet)</text><path d="M10,129.9609 L71,129.9609 L71,138.3125 L61,148.3125 L10,148.3125 L10,129.9609 " fill="#EEEEEE" style="stroke:#000000;stroke-width:1.5;"/><rect fill="none" height="373.8594" style="stroke:#000000;stroke-width:1.5;" width="560.5" x="10" y="129.9609"/><text fill="#000000" font-family="sans-serif" font-size="13" font-weight="bold" lengthAdjust="spacing" textLength="16" x="25" y="144.4561">alt</text><text fill="#000000" font-family="sans-serif" font-size="11" font-weight="bold" lengthAdjust="spacing" textLength="109" x="86" y="143.3799">[Module is enabled]</text><path d="M20,155.3125 L81,155.3125 L81,163.6641 L71,173.6641 L20,173.6641 L20,155.3125 " fill="#EEEEEE" style="stroke:#000000;stroke-width:1.5;"/><rect fill="none" height="295.3203" style="stroke:#000000;stroke-width:1.5;" width="540.5" x="20" y="155.3125"/><text fill="#000000" font-family="sans-serif" font-size="13" font-weight="bold" lengthAdjust="spacing" textLength="16" x="35" y="169.8076">alt</text><text fill="#000000" font-family="sans-serif" font-size="11" font-weight="bold" lengthAdjust="spacing" textLength="200" x="96" y="168.7314">[memberWallet is not address zero]</text><path d="M30,180.6641 L91,180.6641 L91,189.0156 L81,199.0156 L30,199.0156 L30,180.6641 " fill="#EEEEEE" style="stroke:#000000;stroke-width:1.5;"/><rect fill="none" height="216.7813" style="stroke:#000000;stroke-width:1.5;" width="520.5" x="30" y="180.6641"/><text fill="#000000" font-family="sans-serif" font-size="13" font-weight="bold" lengthAdjust="spacing" textLength="16" x="45" y="195.1592">alt</text><text fill="#000000" font-family="sans-serif" font-size="11" font-weight="bold" lengthAdjust="spacing" textLength="208" x="106" y="194.083">[memberWallet is Defaulted member]</text><path d="M40,206.0156 L101,206.0156 L101,214.3672 L91,224.3672 L40,224.3672 L40,206.0156 " fill="#EEEEEE" style="stroke:#000000;stroke-width:1.5;"/><rect fill="none" height="138.2422" style="stroke:#000000;stroke-width:1.5;" width="500.5" x="40" y="206.0156"/><text fill="#000000" font-family="sans-serif" font-size="13" font-weight="bold" lengthAdjust="spacing" textLength="16" x="55" y="220.5107">alt</text><text fill="#000000" font-family="sans-serif" font-size="11" font-weight="bold" lengthAdjust="spacing" textLength="390" x="116" y="219.4346">[Timestamp is higher than a year from last payment plus grace period]</text><line style="stroke:#181818;stroke-width:1.0;stroke-dasharray:2.0,2.0;" x1="307.5" x2="349.5" y1="246.7188" y2="246.7188"/><line style="stroke:#181818;stroke-width:1.0;stroke-dasharray:2.0,2.0;" x1="349.5" x2="349.5" y1="246.7188" y2="259.7188"/><line style="stroke:#181818;stroke-width:1.0;stroke-dasharray:2.0,2.0;" x1="308.5" x2="349.5" y1="259.7188" y2="259.7188"/><polygon fill="#181818" points="318.5,255.7188,308.5,259.7188,318.5,263.7188,314.5,259.7188" style="stroke:#181818;stroke-width:1.0;"/><text fill="#000000" font-family="sans-serif" font-size="13" font-weight="bold" lengthAdjust="spacing" textLength="7" x="314.5" y="241.8623">2</text><text fill="#000000" font-family="sans-serif" font-size="13" lengthAdjust="spacing" textLength="203" x="325.5" y="241.8623">update member status to Canceled</text><polygon fill="#181818" points="82.5,286.0703,72.5,290.0703,82.5,294.0703,78.5,290.0703" style="stroke:#181818;stroke-width:1.0;"/><line style="stroke:#181818;stroke-width:1.0;stroke-dasharray:2.0,2.0;" x1="76.5" x2="306.5" y1="290.0703" y2="290.0703"/><text fill="#000000" font-family="sans-serif" font-size="13" font-weight="bold" lengthAdjust="spacing" textLength="7" x="88.5" y="285.2139">3</text><text fill="#000000" font-family="sans-serif" font-size="13" lengthAdjust="spacing" textLength="183" x="99.5" y="285.2139">Emit OnMemberCanceled event</text><line style="stroke:#000000;stroke-width:1.0;stroke-dasharray:2.0,2.0;" x1="40" x2="540.5" y1="299.0703" y2="299.0703"/><text fill="#000000" font-family="sans-serif" font-size="11" font-weight="bold" lengthAdjust="spacing" textLength="386" x="45" y="310.4893">[Timestamp is lower than a year from last payment plus grace period]</text><polygon fill="#181818" points="82.5,332.2578,72.5,336.2578,82.5,340.2578,78.5,336.2578" style="stroke:#181818;stroke-width:1.0;"/><line style="stroke:#181818;stroke-width:1.0;stroke-dasharray:2.0,2.0;" x1="76.5" x2="306.5" y1="336.2578" y2="336.2578"/><text fill="#000000" font-family="sans-serif" font-size="13" font-weight="bold" lengthAdjust="spacing" textLength="7" x="88.5" y="331.4014">4</text><text fill="#000000" font-family="sans-serif" font-size="13" lengthAdjust="spacing" textLength="36" x="99.5" y="331.4014">Revert</text><line style="stroke:#000000;stroke-width:1.0;stroke-dasharray:2.0,2.0;" x1="30" x2="550.5" y1="352.2578" y2="352.2578"/><text fill="#000000" font-family="sans-serif" font-size="11" font-weight="bold" lengthAdjust="spacing" textLength="229" x="35" y="363.6768">[memberWallet is not Defaulted member]</text><polygon fill="#181818" points="82.5,385.4453,72.5,389.4453,82.5,393.4453,78.5,389.4453" style="stroke:#181818;stroke-width:1.0;"/><line style="stroke:#181818;stroke-width:1.0;" x1="76.5" x2="306.5" y1="389.4453" y2="389.4453"/><text fill="#000000" font-family="sans-serif" font-size="13" font-weight="bold" lengthAdjust="spacing" textLength="7" x="88.5" y="384.5889">5</text><text fill="#000000" font-family="sans-serif" font-size="13" lengthAdjust="spacing" textLength="36" x="99.5" y="384.5889">Revert</text><line style="stroke:#000000;stroke-width:1.0;stroke-dasharray:2.0,2.0;" x1="20" x2="560.5" y1="405.4453" y2="405.4453"/><text fill="#000000" font-family="sans-serif" font-size="11" font-weight="bold" lengthAdjust="spacing" textLength="179" x="25" y="416.8643">[memberWallet is address zero]</text><polygon fill="#181818" points="82.5,438.6328,72.5,442.6328,82.5,446.6328,78.5,442.6328" style="stroke:#181818;stroke-width:1.0;"/><line style="stroke:#181818;stroke-width:1.0;" x1="76.5" x2="306.5" y1="442.6328" y2="442.6328"/><text fill="#000000" font-family="sans-serif" font-size="13" font-weight="bold" lengthAdjust="spacing" textLength="7" x="88.5" y="437.7764">6</text><text fill="#000000" font-family="sans-serif" font-size="13" lengthAdjust="spacing" textLength="36" x="99.5" y="437.7764">Revert</text><line style="stroke:#000000;stroke-width:1.0;stroke-dasharray:2.0,2.0;" x1="10" x2="570.5" y1="458.6328" y2="458.6328"/><text fill="#000000" font-family="sans-serif" font-size="11" font-weight="bold" lengthAdjust="spacing" textLength="112" x="15" y="470.0518">[Module is disabled]</text><polygon fill="#181818" points="82.5,491.8203,72.5,495.8203,82.5,499.8203,78.5,495.8203" style="stroke:#181818;stroke-width:1.0;"/><line style="stroke:#181818;stroke-width:1.0;" x1="76.5" x2="306.5" y1="495.8203" y2="495.8203"/><text fill="#000000" font-family="sans-serif" font-size="13" font-weight="bold" lengthAdjust="spacing" textLength="7" x="88.5" y="490.9639">7</text><text fill="#000000" font-family="sans-serif" font-size="13" lengthAdjust="spacing" textLength="36" x="99.5" y="490.9639">Revert</text><!--SRC=[dLAxRiCm3Dpz5HoR8J-GeKlJCIXG5EZCM4miW98CYKgHVdtrY1ExjTkWMcIPTyVJYHZ5sMZsv9i6Mt4Udf0vd-eEwqVOKQxld8fC6sZHjiJrN-Xq_s3Avtk6oogfi435WWv05lTCge6qScKCpdNh150fJo709tbNW4lWBHqmif2wL0RibJGGtxIX86ZwpEhqiKjOwT02mfdGmy4x0un1eCUp8PjsZW6E7bk2dhnsgfc8vZME0TO_SeczGg71MUekIL5SoZFdTOdWLxsQ-0QUZHPuiRK-q85EoUVK5N6WwLtPVVpZgdSxUqqcl4mzs55KnT3S4tz_kMQvtMAtQwVPBhD3T8ToKIsAjw5LEjoczW-DpFy2]--></g></svg>