<?xml version="1.0" encoding="us-ascii" standalone="no"?><svg xmlns="http://www.w3.org/2000/svg" xmlns:xlink="http://www.w3.org/1999/xlink" contentStyleType="text/css" height="771px" preserveAspectRatio="none" style="width:1312px;height:771px;background:#FFFFFF;" version="1.1" viewBox="0 0 1312 771" width="1312px" zoomAndPan="magnify"><defs/><g><rect fill="none" height="542.3906" style="stroke:#000000;stroke-width:1.5;" width="1295.5" x="10" y="129.9609"/><rect fill="none" height="463.8516" style="stroke:#000000;stroke-width:1.5;" width="1275.5" x="20" y="155.3125"/><rect fill="none" height="81.0547" style="stroke:#000000;stroke-width:1.5;" width="791" x="30" y="180.6641"/><rect fill="none" height="48.7031" style="stroke:#000000;stroke-width:1.5;" width="771" x="40" y="206.0156"/><rect fill="none" height="48.7031" style="stroke:#000000;stroke-width:1.5;" width="771" x="40" y="319.0703"/><line style="stroke:#181818;stroke-width:0.5;stroke-dasharray:5.0,5.0;" x1="71" x2="71" y1="82.6094" y2="689.3516"/><line style="stroke:#181818;stroke-width:0.5;stroke-dasharray:5.0,5.0;" x1="743" x2="743" y1="82.6094" y2="689.3516"/><line style="stroke:#181818;stroke-width:0.5;stroke-dasharray:5.0,5.0;" x1="923" x2="923" y1="82.6094" y2="689.3516"/><line style="stroke:#181818;stroke-width:0.5;stroke-dasharray:5.0,5.0;" x1="1099" x2="1099" y1="82.6094" y2="689.3516"/><line style="stroke:#181818;stroke-width:0.5;stroke-dasharray:5.0,5.0;" x1="1233.5" x2="1233.5" y1="82.6094" y2="689.3516"/><text fill="#000000" font-family="sans-serif" font-size="14" lengthAdjust="spacing" textLength="37" x="50" y="79.5332">Caller</text><ellipse cx="71.5" cy="13.5" fill="#E2E2F0" rx="8" ry="8" style="stroke:#181818;stroke-width:0.5;"/><path d="M71.5,21.5 L71.5,48.5 M58.5,29.5 L84.5,29.5 M71.5,48.5 L58.5,63.5 M71.5,48.5 L84.5,63.5 " fill="none" style="stroke:#181818;stroke-width:0.5;"/><text fill="#000000" font-family="sans-serif" font-size="14" lengthAdjust="spacing" textLength="37" x="50" y="702.8848">Caller</text><ellipse cx="71.5" cy="714.4609" fill="#E2E2F0" rx="8" ry="8" style="stroke:#181818;stroke-width:0.5;"/><path d="M71.5,722.4609 L71.5,749.4609 M58.5,730.4609 L84.5,730.4609 M71.5,749.4609 L58.5,764.4609 M71.5,749.4609 L84.5,764.4609 " fill="none" style="stroke:#181818;stroke-width:0.5;"/><rect fill="#E2E2F0" height="31.6094" rx="2.5" ry="2.5" style="stroke:#181818;stroke-width:0.5;" width="115" x="686" y="50"/><text fill="#000000" font-family="sans-serif" font-size="14" lengthAdjust="spacing" textLength="101" x="693" y="71.5332">TLDCcipSender</text><rect fill="#E2E2F0" height="31.6094" rx="2.5" ry="2.5" style="stroke:#181818;stroke-width:0.5;" width="115" x="686" y="688.3516"/><text fill="#000000" font-family="sans-serif" font-size="14" lengthAdjust="spacing" textLength="101" x="693" y="709.8848">TLDCcipSender</text><rect fill="#E2E2F0" height="31.6094" rx="2.5" ry="2.5" style="stroke:#181818;stroke-width:0.5;" width="57" x="895" y="50"/><text fill="#000000" font-family="sans-serif" font-size="14" lengthAdjust="spacing" textLength="43" x="902" y="71.5332">Router</text><rect fill="#E2E2F0" height="31.6094" rx="2.5" ry="2.5" style="stroke:#181818;stroke-width:0.5;" width="57" x="895" y="688.3516"/><text fill="#000000" font-family="sans-serif" font-size="14" lengthAdjust="spacing" textLength="43" x="902" y="709.8848">Router</text><rect fill="#E2E2F0" height="31.6094" rx="2.5" ry="2.5" style="stroke:#181818;stroke-width:0.5;" width="125" x="1037" y="50"/><text fill="#000000" font-family="sans-serif" font-size="14" lengthAdjust="spacing" textLength="111" x="1044" y="71.5332">TLDCcipReceiver</text><rect fill="#E2E2F0" height="31.6094" rx="2.5" ry="2.5" style="stroke:#181818;stroke-width:0.5;" width="125" x="1037" y="688.3516"/><text fill="#000000" font-family="sans-serif" font-size="14" lengthAdjust="spacing" textLength="111" x="1044" y="709.8848">TLDCcipReceiver</text><rect fill="#E2E2F0" height="31.6094" rx="2.5" ry="2.5" style="stroke:#181818;stroke-width:0.5;" width="104" x="1181.5" y="50"/><text fill="#000000" font-family="sans-serif" font-size="14" lengthAdjust="spacing" textLength="90" x="1188.5" y="71.5332">PrejoinModule</text><rect fill="#E2E2F0" height="31.6094" rx="2.5" ry="2.5" style="stroke:#181818;stroke-width:0.5;" width="104" x="1181.5" y="688.3516"/><text fill="#000000" font-family="sans-serif" font-size="14" lengthAdjust="spacing" textLength="90" x="1188.5" y="709.8848">PrejoinModule</text><polygon fill="#181818" points="731.5,110.9609,741.5,114.9609,731.5,118.9609,735.5,114.9609" style="stroke:#181818;stroke-width:1.0;"/><line style="stroke:#181818;stroke-width:1.0;" x1="71.5" x2="737.5" y1="114.9609" y2="114.9609"/><text fill="#000000" font-family="sans-serif" font-size="13" font-weight="bold" lengthAdjust="spacing" textLength="7" x="78.5" y="110.1045">1</text><text fill="#000000" font-family="sans-serif" font-size="13" lengthAdjust="spacing" textLength="637" x="89.5" y="110.1045">sendMessage(amountToTransfer, tokenToTransfer, gasLimit, contribution, tDAOName, parent, couponAmount)</text><path d="M10,129.9609 L71,129.9609 L71,138.3125 L61,148.3125 L10,148.3125 L10,129.9609 " fill="#EEEEEE" style="stroke:#000000;stroke-width:1.5;"/><rect fill="none" height="542.3906" style="stroke:#000000;stroke-width:1.5;" width="1295.5" x="10" y="129.9609"/><text fill="#000000" font-family="sans-serif" font-size="13" font-weight="bold" lengthAdjust="spacing" textLength="16" x="25" y="144.4561">alt</text><text fill="#000000" font-family="sans-serif" font-size="11" font-weight="bold" lengthAdjust="spacing" textLength="117" x="86" y="143.3799">[Token is supported]</text><path d="M20,155.3125 L81,155.3125 L81,163.6641 L71,173.6641 L20,173.6641 L20,155.3125 " fill="#EEEEEE" style="stroke:#000000;stroke-width:1.5;"/><rect fill="none" height="463.8516" style="stroke:#000000;stroke-width:1.5;" width="1275.5" x="20" y="155.3125"/><text fill="#000000" font-family="sans-serif" font-size="13" font-weight="bold" lengthAdjust="spacing" textLength="16" x="35" y="169.8076">alt</text><text fill="#000000" font-family="sans-serif" font-size="11" font-weight="bold" lengthAdjust="spacing" textLength="136" x="96" y="168.7314">[contribution is in range]</text><path d="M30,180.6641 L91,180.6641 L91,189.0156 L81,199.0156 L30,199.0156 L30,180.6641 " fill="#EEEEEE" style="stroke:#000000;stroke-width:1.5;"/><rect fill="none" height="81.0547" style="stroke:#000000;stroke-width:1.5;" width="791" x="30" y="180.6641"/><text fill="#000000" font-family="sans-serif" font-size="13" font-weight="bold" lengthAdjust="spacing" textLength="16" x="45" y="195.1592">alt</text><text fill="#000000" font-family="sans-serif" font-size="11" font-weight="bold" lengthAdjust="spacing" textLength="144" x="106" y="194.083">[Coupon is greater than 0]</text><path d="M40,206.0156 L101,206.0156 L101,214.3672 L91,224.3672 L40,224.3672 L40,206.0156 " fill="#EEEEEE" style="stroke:#000000;stroke-width:1.5;"/><rect fill="none" height="48.7031" style="stroke:#000000;stroke-width:1.5;" width="771" x="40" y="206.0156"/><text fill="#000000" font-family="sans-serif" font-size="13" font-weight="bold" lengthAdjust="spacing" textLength="16" x="55" y="220.5107">alt</text><text fill="#000000" font-family="sans-serif" font-size="11" font-weight="bold" lengthAdjust="spacing" textLength="120" x="116" y="219.4346">[Caller is not allowed]</text><polygon fill="#181818" points="82.5,242.7188,72.5,246.7188,82.5,250.7188,78.5,246.7188" style="stroke:#181818;stroke-width:1.0;"/><line style="stroke:#181818;stroke-width:1.0;" x1="76.5" x2="742.5" y1="246.7188" y2="246.7188"/><text fill="#000000" font-family="sans-serif" font-size="13" font-weight="bold" lengthAdjust="spacing" textLength="7" x="88.5" y="241.8623">2</text><text fill="#000000" font-family="sans-serif" font-size="13" lengthAdjust="spacing" textLength="36" x="99.5" y="241.8623">Revert</text><line style="stroke:#181818;stroke-width:1.0;stroke-dasharray:2.0,2.0;" x1="743.5" x2="785.5" y1="291.0703" y2="291.0703"/><line style="stroke:#181818;stroke-width:1.0;stroke-dasharray:2.0,2.0;" x1="785.5" x2="785.5" y1="291.0703" y2="304.0703"/><line style="stroke:#181818;stroke-width:1.0;stroke-dasharray:2.0,2.0;" x1="744.5" x2="785.5" y1="304.0703" y2="304.0703"/><polygon fill="#181818" points="754.5,300.0703,744.5,304.0703,754.5,308.0703,750.5,304.0703" style="stroke:#181818;stroke-width:1.0;"/><text fill="#000000" font-family="sans-serif" font-size="13" font-weight="bold" lengthAdjust="spacing" textLength="7" x="750.5" y="286.2139">3</text><text fill="#000000" font-family="sans-serif" font-size="13" lengthAdjust="spacing" textLength="84" x="761.5" y="286.2139">build message</text><path d="M40,319.0703 L101,319.0703 L101,327.4219 L91,337.4219 L40,337.4219 L40,319.0703 " fill="#EEEEEE" style="stroke:#000000;stroke-width:1.5;"/><rect fill="none" height="48.7031" style="stroke:#000000;stroke-width:1.5;" width="771" x="40" y="319.0703"/><text fill="#000000" font-family="sans-serif" font-size="13" font-weight="bold" lengthAdjust="spacing" textLength="16" x="55" y="333.5654">alt</text><text fill="#000000" font-family="sans-serif" font-size="11" font-weight="bold" lengthAdjust="spacing" textLength="147" x="116" y="332.4893">[Not enough Link for Fees]</text><polygon fill="#181818" points="82.5,355.7734,72.5,359.7734,82.5,363.7734,78.5,359.7734" style="stroke:#181818;stroke-width:1.0;"/><line style="stroke:#181818;stroke-width:1.0;" x1="76.5" x2="742.5" y1="359.7734" y2="359.7734"/><text fill="#000000" font-family="sans-serif" font-size="13" font-weight="bold" lengthAdjust="spacing" textLength="7" x="88.5" y="354.917">4</text><text fill="#000000" font-family="sans-serif" font-size="13" lengthAdjust="spacing" textLength="36" x="99.5" y="354.917">Revert</text><polygon fill="#181818" points="731.5,393.125,741.5,397.125,731.5,401.125,735.5,397.125" style="stroke:#181818;stroke-width:1.0;"/><line style="stroke:#181818;stroke-width:1.0;" x1="71.5" x2="737.5" y1="397.125" y2="397.125"/><text fill="#000000" font-family="sans-serif" font-size="13" font-weight="bold" lengthAdjust="spacing" textLength="7" x="78.5" y="392.2686">5</text><text fill="#000000" font-family="sans-serif" font-size="13" lengthAdjust="spacing" textLength="78" x="89.5" y="392.2686">transfer funds</text><polygon fill="#181818" points="911.5,423.4766,921.5,427.4766,911.5,431.4766,915.5,427.4766" style="stroke:#181818;stroke-width:1.0;"/><line style="stroke:#181818;stroke-width:1.0;" x1="743.5" x2="917.5" y1="427.4766" y2="427.4766"/><text fill="#000000" font-family="sans-serif" font-size="13" font-weight="bold" lengthAdjust="spacing" textLength="7" x="750.5" y="422.6201">6</text><text fill="#000000" font-family="sans-serif" font-size="13" lengthAdjust="spacing" textLength="145" x="761.5" y="422.6201">send message and funds</text><polygon fill="#181818" points="82.5,453.8281,72.5,457.8281,82.5,461.8281,78.5,457.8281" style="stroke:#181818;stroke-width:1.0;"/><line style="stroke:#181818;stroke-width:1.0;" x1="76.5" x2="742.5" y1="457.8281" y2="457.8281"/><text fill="#000000" font-family="sans-serif" font-size="13" font-weight="bold" lengthAdjust="spacing" textLength="7" x="88.5" y="452.9717">7</text><text fill="#000000" font-family="sans-serif" font-size="13" lengthAdjust="spacing" textLength="188" x="99.5" y="452.9717">Emit OnTokensTransferred event</text><polygon fill="#181818" points="1087.5,484.1797,1097.5,488.1797,1087.5,492.1797,1091.5,488.1797" style="stroke:#181818;stroke-width:1.0;"/><line style="stroke:#181818;stroke-width:1.0;" x1="923.5" x2="1093.5" y1="488.1797" y2="488.1797"/><text fill="#000000" font-family="sans-serif" font-size="13" font-weight="bold" lengthAdjust="spacing" textLength="7" x="930.5" y="483.3232">8</text><text fill="#000000" font-family="sans-serif" font-size="13" lengthAdjust="spacing" textLength="141" x="941.5" y="483.3232">sendMessage and funds</text><polygon fill="#181818" points="1221.5,514.5313,1231.5,518.5313,1221.5,522.5313,1225.5,518.5313" style="stroke:#181818;stroke-width:1.0;"/><line style="stroke:#181818;stroke-width:1.0;" x1="1099.5" x2="1227.5" y1="518.5313" y2="518.5313"/><text fill="#000000" font-family="sans-serif" font-size="13" font-weight="bold" lengthAdjust="spacing" textLength="7" x="1106.5" y="513.6748">9</text><text fill="#000000" font-family="sans-serif" font-size="13" lengthAdjust="spacing" textLength="99" x="1117.5" y="513.6748">Perform payment</text><rect fill="none" height="41.4453" style="stroke:#000000;stroke-width:1.5;" width="110" x="1178.5" y="526.5313"/><path d="M1178.5,526.5313 L1240.5,526.5313 L1240.5,534.5313 L1230.5,544.5313 L1178.5,544.5313 L1178.5,526.5313 " fill="#EEEEEE" style="stroke:#000000;stroke-width:2.0;"/><text fill="#000000" font-family="sans-serif" font-size="13" font-weight="bold" lengthAdjust="spacing" textLength="17" x="1191.5" y="542.0264">ref</text><text fill="#000000" font-family="sans-serif" font-size="12" lengthAdjust="spacing" textLength="47" x="1210" y="560.9883">payment</text><line style="stroke:#000000;stroke-width:1.0;stroke-dasharray:2.0,2.0;" x1="20" x2="1295.5" y1="573.9766" y2="573.9766"/><text fill="#000000" font-family="sans-serif" font-size="11" font-weight="bold" lengthAdjust="spacing" textLength="157" x="25" y="585.3955">[contribution is not in range]</text><polygon fill="#181818" points="82.5,607.1641,72.5,611.1641,82.5,615.1641,78.5,611.1641" style="stroke:#181818;stroke-width:1.0;"/><line style="stroke:#181818;stroke-width:1.0;" x1="76.5" x2="742.5" y1="611.1641" y2="611.1641"/><text fill="#000000" font-family="sans-serif" font-size="13" font-weight="bold" lengthAdjust="spacing" textLength="14" x="88.5" y="606.3076">10</text><text fill="#000000" font-family="sans-serif" font-size="13" lengthAdjust="spacing" textLength="36" x="106.5" y="606.3076">Revert</text><line style="stroke:#000000;stroke-width:1.0;stroke-dasharray:2.0,2.0;" x1="10" x2="1305.5" y1="627.1641" y2="627.1641"/><text fill="#000000" font-family="sans-serif" font-size="11" font-weight="bold" lengthAdjust="spacing" textLength="138" x="15" y="638.583">[Token is not supported]</text><polygon fill="#181818" points="82.5,660.3516,72.5,664.3516,82.5,668.3516,78.5,664.3516" style="stroke:#181818;stroke-width:1.0;"/><line style="stroke:#181818;stroke-width:1.0;" x1="76.5" x2="742.5" y1="664.3516" y2="664.3516"/><text fill="#000000" font-family="sans-serif" font-size="13" font-weight="bold" lengthAdjust="spacing" textLength="14" x="88.5" y="659.4951">11</text><text fill="#000000" font-family="sans-serif" font-size="13" lengthAdjust="spacing" textLength="36" x="106.5" y="659.4951">Revert</text><!--SRC=[dLFBJiCm4BpxA_O8Kf4uzu1KjN3gIoK_u2QRO9hiHduKyVUiaoOahQ8YVF5hTdQyEzR1CuNgY5OfdNgsiDHb6NVj34ylaAnNozJKxqWPsZaucJVed2xmGLSSo2USM4qkHpi3poUauK6XtTfKniyWPVBM78CtJ09SBNPRNU4CQcsHcljGCoqQoaUHKtf88XiO1oxKDLkFcG8PyMh85X66G78Ms00wqBAXZDU5HUtbFVv34ppte1xOlbQ0n5vEIlwwv1gEKILYQTgmEHpmZDQFy89HmxMQ8Bajy36OCeEgBJ6eqOEseWw9G_41QqCdoALZRuXE_KVcIDPal_sbbP07ofoQJ7BWu3j_zEgrhE_4TU9UnIImewRbhlEFnGn4DFsARjCCT1umHNE-SkPquWuU6VOMFzdGXhDGuXpsQAMUbHZokuef-r2BEN2CkGeO0R5qUEFAwAORP_wbFqrl6ih-3qIkyJ-uHnH9VW00]--></g></svg>