<?xml version="1.0" encoding="us-ascii" standalone="no"?><svg xmlns="http://www.w3.org/2000/svg" xmlns:xlink="http://www.w3.org/1999/xlink" contentStyleType="text/css" height="524px" preserveAspectRatio="none" style="width:539px;height:524px;background:#FFFFFF;" version="1.1" viewBox="0 0 539 524" width="539px" zoomAndPan="magnify"><defs/><g><rect fill="none" height="295.3203" style="stroke:#000000;stroke-width:1.5;" width="522.5" x="10" y="129.9609"/><rect fill="none" height="216.7813" style="stroke:#000000;stroke-width:1.5;" width="502.5" x="20" y="155.3125"/><rect fill="none" height="138.2422" style="stroke:#000000;stroke-width:1.5;" width="482.5" x="30" y="180.6641"/><line style="stroke:#181818;stroke-width:0.5;stroke-dasharray:5.0,5.0;" x1="61" x2="61" y1="82.6094" y2="442.2813"/><line style="stroke:#181818;stroke-width:0.5;stroke-dasharray:5.0,5.0;" x1="279" x2="279" y1="82.6094" y2="442.2813"/><text fill="#000000" font-family="sans-serif" font-size="14" lengthAdjust="spacing" textLength="37" x="40" y="79.5332">Caller</text><ellipse cx="61.5" cy="13.5" fill="#E2E2F0" rx="8" ry="8" style="stroke:#181818;stroke-width:0.5;"/><path d="M61.5,21.5 L61.5,48.5 M48.5,29.5 L74.5,29.5 M61.5,48.5 L48.5,63.5 M61.5,48.5 L74.5,63.5 " fill="none" style="stroke:#181818;stroke-width:0.5;"/><text fill="#000000" font-family="sans-serif" font-size="14" lengthAdjust="spacing" textLength="37" x="40" y="455.8145">Caller</text><ellipse cx="61.5" cy="467.3906" fill="#E2E2F0" rx="8" ry="8" style="stroke:#181818;stroke-width:0.5;"/><path d="M61.5,475.3906 L61.5,502.3906 M48.5,483.3906 L74.5,483.3906 M61.5,502.3906 L48.5,517.3906 M61.5,502.3906 L74.5,517.3906 " fill="none" style="stroke:#181818;stroke-width:0.5;"/><rect fill="#E2E2F0" height="31.6094" rx="2.5" ry="2.5" style="stroke:#181818;stroke-width:0.5;" width="111" x="224" y="50"/><text fill="#000000" font-family="sans-serif" font-size="14" lengthAdjust="spacing" textLength="97" x="231" y="71.5332">MemberModule</text><rect fill="#E2E2F0" height="31.6094" rx="2.5" ry="2.5" style="stroke:#181818;stroke-width:0.5;" width="111" x="224" y="441.2813"/><text fill="#000000" font-family="sans-serif" font-size="14" lengthAdjust="spacing" textLength="97" x="231" y="462.8145">MemberModule</text><polygon fill="#181818" points="267.5,110.9609,277.5,114.9609,267.5,118.9609,271.5,114.9609" style="stroke:#181818;stroke-width:1.0;"/><line style="stroke:#181818;stroke-width:1.0;" x1="61.5" x2="273.5" y1="114.9609" y2="114.9609"/><text fill="#000000" font-family="sans-serif" font-size="13" font-weight="bold" lengthAdjust="spacing" textLength="7" x="68.5" y="110.1045">1</text><text fill="#000000" font-family="sans-serif" font-size="13" lengthAdjust="spacing" textLength="177" x="79.5" y="110.1045">defaultMember(memberWallet)</text><path d="M10,129.9609 L71,129.9609 L71,138.3125 L61,148.3125 L10,148.3125 L10,129.9609 " fill="#EEEEEE" style="stroke:#000000;stroke-width:1.5;"/><rect fill="none" height="295.3203" style="stroke:#000000;stroke-width:1.5;" width="522.5" x="10" y="129.9609"/><text fill="#000000" font-family="sans-serif" font-size="13" font-weight="bold" lengthAdjust="spacing" textLength="16" x="25" y="144.4561">alt</text><text fill="#000000" font-family="sans-serif" font-size="11" font-weight="bold" lengthAdjust="spacing" textLength="109" x="86" y="143.3799">[Module is enabled]</text><path d="M20,155.3125 L81,155.3125 L81,163.6641 L71,173.6641 L20,173.6641 L20,155.3125 " fill="#EEEEEE" style="stroke:#000000;stroke-width:1.5;"/><rect fill="none" height="216.7813" style="stroke:#000000;stroke-width:1.5;" width="502.5" x="20" y="155.3125"/><text fill="#000000" font-family="sans-serif" font-size="13" font-weight="bold" lengthAdjust="spacing" textLength="16" x="35" y="169.8076">alt</text><text fill="#000000" font-family="sans-serif" font-size="11" font-weight="bold" lengthAdjust="spacing" textLength="190" x="96" y="168.7314">[memberWallet is Active member]</text><path d="M30,180.6641 L91,180.6641 L91,189.0156 L81,199.0156 L30,199.0156 L30,180.6641 " fill="#EEEEEE" style="stroke:#000000;stroke-width:1.5;"/><rect fill="none" height="138.2422" style="stroke:#000000;stroke-width:1.5;" width="482.5" x="30" y="180.6641"/><text fill="#000000" font-family="sans-serif" font-size="13" font-weight="bold" lengthAdjust="spacing" textLength="16" x="45" y="195.1592">alt</text><text fill="#000000" font-family="sans-serif" font-size="11" font-weight="bold" lengthAdjust="spacing" textLength="290" x="106" y="194.083">[Timestamp is higher than a year from last payment]</text><line style="stroke:#181818;stroke-width:1.0;stroke-dasharray:2.0,2.0;" x1="279.5" x2="321.5" y1="221.3672" y2="221.3672"/><line style="stroke:#181818;stroke-width:1.0;stroke-dasharray:2.0,2.0;" x1="321.5" x2="321.5" y1="221.3672" y2="234.3672"/><line style="stroke:#181818;stroke-width:1.0;stroke-dasharray:2.0,2.0;" x1="280.5" x2="321.5" y1="234.3672" y2="234.3672"/><polygon fill="#181818" points="290.5,230.3672,280.5,234.3672,290.5,238.3672,286.5,234.3672" style="stroke:#181818;stroke-width:1.0;"/><text fill="#000000" font-family="sans-serif" font-size="13" font-weight="bold" lengthAdjust="spacing" textLength="7" x="286.5" y="216.5107">2</text><text fill="#000000" font-family="sans-serif" font-size="13" lengthAdjust="spacing" textLength="203" x="297.5" y="216.5107">update member status to Defaulted</text><polygon fill="#181818" points="72.5,260.7188,62.5,264.7188,72.5,268.7188,68.5,264.7188" style="stroke:#181818;stroke-width:1.0;"/><line style="stroke:#181818;stroke-width:1.0;stroke-dasharray:2.0,2.0;" x1="66.5" x2="278.5" y1="264.7188" y2="264.7188"/><text fill="#000000" font-family="sans-serif" font-size="13" font-weight="bold" lengthAdjust="spacing" textLength="7" x="78.5" y="259.8623">3</text><text fill="#000000" font-family="sans-serif" font-size="13" lengthAdjust="spacing" textLength="183" x="89.5" y="259.8623">Emit OnMemberDefaulted event</text><line style="stroke:#000000;stroke-width:1.0;stroke-dasharray:2.0,2.0;" x1="30" x2="512.5" y1="273.7188" y2="273.7188"/><text fill="#000000" font-family="sans-serif" font-size="11" font-weight="bold" lengthAdjust="spacing" textLength="286" x="35" y="285.1377">[Timestamp is lower than a year from last payment]</text><polygon fill="#181818" points="72.5,306.9063,62.5,310.9063,72.5,314.9063,68.5,310.9063" style="stroke:#181818;stroke-width:1.0;"/><line style="stroke:#181818;stroke-width:1.0;stroke-dasharray:2.0,2.0;" x1="66.5" x2="278.5" y1="310.9063" y2="310.9063"/><text fill="#000000" font-family="sans-serif" font-size="13" font-weight="bold" lengthAdjust="spacing" textLength="7" x="78.5" y="306.0498">4</text><text fill="#000000" font-family="sans-serif" font-size="13" lengthAdjust="spacing" textLength="36" x="89.5" y="306.0498">Revert</text><line style="stroke:#000000;stroke-width:1.0;stroke-dasharray:2.0,2.0;" x1="20" x2="522.5" y1="326.9063" y2="326.9063"/><text fill="#000000" font-family="sans-serif" font-size="11" font-weight="bold" lengthAdjust="spacing" textLength="211" x="25" y="338.3252">[memberWallet is not Active member]</text><polygon fill="#181818" points="72.5,360.0938,62.5,364.0938,72.5,368.0938,68.5,364.0938" style="stroke:#181818;stroke-width:1.0;"/><line style="stroke:#181818;stroke-width:1.0;" x1="66.5" x2="278.5" y1="364.0938" y2="364.0938"/><text fill="#000000" font-family="sans-serif" font-size="13" font-weight="bold" lengthAdjust="spacing" textLength="7" x="78.5" y="359.2373">5</text><text fill="#000000" font-family="sans-serif" font-size="13" lengthAdjust="spacing" textLength="36" x="89.5" y="359.2373">Revert</text><line style="stroke:#000000;stroke-width:1.0;stroke-dasharray:2.0,2.0;" x1="10" x2="532.5" y1="380.0938" y2="380.0938"/><text fill="#000000" font-family="sans-serif" font-size="11" font-weight="bold" lengthAdjust="spacing" textLength="112" x="15" y="391.5127">[Module is disabled]</text><polygon fill="#181818" points="72.5,413.2813,62.5,417.2813,72.5,421.2813,68.5,417.2813" style="stroke:#181818;stroke-width:1.0;"/><line style="stroke:#181818;stroke-width:1.0;" x1="66.5" x2="278.5" y1="417.2813" y2="417.2813"/><text fill="#000000" font-family="sans-serif" font-size="13" font-weight="bold" lengthAdjust="spacing" textLength="7" x="78.5" y="412.4248">6</text><text fill="#000000" font-family="sans-serif" font-size="13" lengthAdjust="spacing" textLength="36" x="89.5" y="412.4248">Revert</text><!--SRC=[ZL7BRW8n3BplLyon7FW13fKgoX5LGaWz6sAwaV9O9GuLVzyyW6Lf4St5YZsU6TkKnBjaTnowZlRY0vPaJFcrYFahrbpgQw-IuGKK7oWPQSaNMyDdmSeiKnX10q97iAETOTKXlrAv1PVwsrxqaS_fYheWjzfo5B93WVNwgyzEf2S7meafu12yXQ4e6EXasKbtRI_lrZ7clqP8WoAvw2BhI8eGZ_SssjdnGxAscGLMLWi-NAjVUy77YHysaQVp6F_zT9n_6TXagJ1YsQacMoNlb-syF5ZubFzF-afTQSVhAXt7ypxXAFq_]--></g></svg>