<?xml version="1.0" encoding="us-ascii" standalone="no"?><svg xmlns="http://www.w3.org/2000/svg" xmlns:xlink="http://www.w3.org/1999/xlink" contentStyleType="text/css" height="489px" preserveAspectRatio="none" style="width:611px;height:489px;background:#FFFFFF;" version="1.1" viewBox="0 0 611 489" width="611px" zoomAndPan="magnify"><defs/><g><rect fill="none" height="229.7813" style="stroke:#000000;stroke-width:1.5;" width="546.5" x="58" y="160.3125"/><rect fill="none" height="151.2422" style="stroke:#000000;stroke-width:1.5;" width="526.5" x="68" y="185.6641"/><line style="stroke:#181818;stroke-width:0.5;stroke-dasharray:5.0,5.0;" x1="36" x2="36" y1="82.6094" y2="407.0938"/><line style="stroke:#181818;stroke-width:0.5;stroke-dasharray:5.0,5.0;" x1="113" x2="113" y1="82.6094" y2="407.0938"/><line style="stroke:#181818;stroke-width:0.5;stroke-dasharray:5.0,5.0;" x1="181" x2="181" y1="82.6094" y2="407.0938"/><line style="stroke:#181818;stroke-width:0.5;stroke-dasharray:5.0,5.0;" x1="458.5" x2="458.5" y1="82.6094" y2="407.0938"/><text fill="#000000" font-family="sans-serif" font-size="14" lengthAdjust="spacing" textLength="57" x="5" y="79.5332">Deployer</text><ellipse cx="36.5" cy="13.5" fill="#E2E2F0" rx="8" ry="8" style="stroke:#181818;stroke-width:0.5;"/><path d="M36.5,21.5 L36.5,48.5 M23.5,29.5 L49.5,29.5 M36.5,48.5 L23.5,63.5 M36.5,48.5 L49.5,63.5 " fill="none" style="stroke:#181818;stroke-width:0.5;"/><text fill="#000000" font-family="sans-serif" font-size="14" lengthAdjust="spacing" textLength="57" x="5" y="420.627">Deployer</text><ellipse cx="36.5" cy="432.2031" fill="#E2E2F0" rx="8" ry="8" style="stroke:#181818;stroke-width:0.5;"/><path d="M36.5,440.2031 L36.5,467.2031 M23.5,448.2031 L49.5,448.2031 M36.5,467.2031 L23.5,482.2031 M36.5,467.2031 L49.5,482.2031 " fill="none" style="stroke:#181818;stroke-width:0.5;"/><text fill="#000000" font-family="sans-serif" font-size="14" lengthAdjust="spacing" textLength="65" x="78" y="79.5332">DaoAdmin</text><ellipse cx="113.5" cy="13.5" fill="#E2E2F0" rx="8" ry="8" style="stroke:#181818;stroke-width:0.5;"/><path d="M113.5,21.5 L113.5,48.5 M100.5,29.5 L126.5,29.5 M113.5,48.5 L100.5,63.5 M113.5,48.5 L126.5,63.5 " fill="none" style="stroke:#181818;stroke-width:0.5;"/><text fill="#000000" font-family="sans-serif" font-size="14" lengthAdjust="spacing" textLength="65" x="78" y="420.627">DaoAdmin</text><ellipse cx="113.5" cy="432.2031" fill="#E2E2F0" rx="8" ry="8" style="stroke:#181818;stroke-width:0.5;"/><path d="M113.5,440.2031 L113.5,467.2031 M100.5,448.2031 L126.5,448.2031 M113.5,467.2031 L100.5,482.2031 M113.5,467.2031 L126.5,482.2031 " fill="none" style="stroke:#181818;stroke-width:0.5;"/><rect fill="#E2E2F0" height="31.6094" rx="2.5" ry="2.5" style="stroke:#181818;stroke-width:0.5;" width="44" x="159" y="50"/><text fill="#000000" font-family="sans-serif" font-size="14" lengthAdjust="spacing" textLength="30" x="166" y="71.5332">DAO</text><rect fill="#E2E2F0" height="31.6094" rx="2.5" ry="2.5" style="stroke:#181818;stroke-width:0.5;" width="44" x="159" y="406.0938"/><text fill="#000000" font-family="sans-serif" font-size="14" lengthAdjust="spacing" textLength="30" x="166" y="427.627">DAO</text><rect fill="#E2E2F0" height="31.6094" rx="2.5" ry="2.5" style="stroke:#181818;stroke-width:0.5;" width="104" x="406.5" y="50"/><text fill="#000000" font-family="sans-serif" font-size="14" lengthAdjust="spacing" textLength="90" x="413.5" y="71.5332">PrejoinModule</text><rect fill="#E2E2F0" height="31.6094" rx="2.5" ry="2.5" style="stroke:#181818;stroke-width:0.5;" width="104" x="406.5" y="406.0938"/><text fill="#000000" font-family="sans-serif" font-size="14" lengthAdjust="spacing" textLength="90" x="413.5" y="427.627">PrejoinModule</text><polygon fill="#181818" points="169,110.9609,179,114.9609,169,118.9609,173,114.9609" style="stroke:#181818;stroke-width:1.0;"/><line style="stroke:#181818;stroke-width:1.0;" x1="36.5" x2="175" y1="114.9609" y2="114.9609"/><text fill="#000000" font-family="sans-serif" font-size="13" font-weight="bold" lengthAdjust="spacing" textLength="7" x="43.5" y="110.1045">1</text><text fill="#000000" font-family="sans-serif" font-size="13" lengthAdjust="spacing" textLength="40" x="54.5" y="110.1045">Deploy</text><polygon fill="#181818" points="446.5,141.3125,456.5,145.3125,446.5,149.3125,450.5,145.3125" style="stroke:#181818;stroke-width:1.0;"/><line style="stroke:#181818;stroke-width:1.0;" x1="113.5" x2="452.5" y1="145.3125" y2="145.3125"/><text fill="#000000" font-family="sans-serif" font-size="13" font-weight="bold" lengthAdjust="spacing" textLength="7" x="120.5" y="140.4561">2</text><text fill="#000000" font-family="sans-serif" font-size="13" lengthAdjust="spacing" textLength="310" x="131.5" y="140.4561">launcDAO(DAOAddress, isReferralDiscountEbnabled)</text><path d="M58,160.3125 L119,160.3125 L119,168.6641 L109,178.6641 L58,178.6641 L58,160.3125 " fill="#EEEEEE" style="stroke:#000000;stroke-width:1.5;"/><rect fill="none" height="229.7813" style="stroke:#000000;stroke-width:1.5;" width="546.5" x="58" y="160.3125"/><text fill="#000000" font-family="sans-serif" font-size="13" font-weight="bold" lengthAdjust="spacing" textLength="16" x="73" y="174.8076">alt</text><text fill="#000000" font-family="sans-serif" font-size="11" font-weight="bold" lengthAdjust="spacing" textLength="109" x="134" y="173.7314">[Module is enabled]</text><path d="M68,185.6641 L129,185.6641 L129,194.0156 L119,204.0156 L68,204.0156 L68,185.6641 " fill="#EEEEEE" style="stroke:#000000;stroke-width:1.5;"/><rect fill="none" height="151.2422" style="stroke:#000000;stroke-width:1.5;" width="526.5" x="68" y="185.6641"/><text fill="#000000" font-family="sans-serif" font-size="13" font-weight="bold" lengthAdjust="spacing" textLength="16" x="83" y="200.1592">alt</text><text fill="#000000" font-family="sans-serif" font-size="11" font-weight="bold" lengthAdjust="spacing" textLength="121" x="144" y="199.083">[Valid admin and DAO]</text><line style="stroke:#181818;stroke-width:1.0;stroke-dasharray:2.0,2.0;" x1="458.5" x2="500.5" y1="226.3672" y2="226.3672"/><line style="stroke:#181818;stroke-width:1.0;stroke-dasharray:2.0,2.0;" x1="500.5" x2="500.5" y1="226.3672" y2="239.3672"/><line style="stroke:#181818;stroke-width:1.0;stroke-dasharray:2.0,2.0;" x1="459.5" x2="500.5" y1="239.3672" y2="239.3672"/><polygon fill="#181818" points="469.5,235.3672,459.5,239.3672,469.5,243.3672,465.5,239.3672" style="stroke:#181818;stroke-width:1.0;"/><text fill="#000000" font-family="sans-serif" font-size="13" font-weight="bold" lengthAdjust="spacing" textLength="7" x="465.5" y="221.5107">3</text><text fill="#000000" font-family="sans-serif" font-size="13" lengthAdjust="spacing" textLength="106" x="476.5" y="221.5107">Set DAO variables</text><line style="stroke:#181818;stroke-width:1.0;stroke-dasharray:2.0,2.0;" x1="458.5" x2="500.5" y1="269.7188" y2="269.7188"/><line style="stroke:#181818;stroke-width:1.0;stroke-dasharray:2.0,2.0;" x1="500.5" x2="500.5" y1="269.7188" y2="282.7188"/><line style="stroke:#181818;stroke-width:1.0;stroke-dasharray:2.0,2.0;" x1="459.5" x2="500.5" y1="282.7188" y2="282.7188"/><polygon fill="#181818" points="469.5,278.7188,459.5,282.7188,469.5,286.7188,465.5,282.7188" style="stroke:#181818;stroke-width:1.0;"/><text fill="#000000" font-family="sans-serif" font-size="13" font-weight="bold" lengthAdjust="spacing" textLength="7" x="465.5" y="264.8623">4</text><text fill="#000000" font-family="sans-serif" font-size="13" lengthAdjust="spacing" textLength="85" x="476.5" y="264.8623">Disable prejoin</text><line style="stroke:#000000;stroke-width:1.0;stroke-dasharray:2.0,2.0;" x1="68" x2="594.5" y1="291.7188" y2="291.7188"/><text fill="#000000" font-family="sans-serif" font-size="11" font-weight="bold" lengthAdjust="spacing" textLength="121" x="73" y="303.1377">[Invalid admin or DAO]</text><polygon fill="#181818" points="124.5,324.9063,114.5,328.9063,124.5,332.9063,120.5,328.9063" style="stroke:#181818;stroke-width:1.0;"/><line style="stroke:#181818;stroke-width:1.0;" x1="118.5" x2="457.5" y1="328.9063" y2="328.9063"/><text fill="#000000" font-family="sans-serif" font-size="13" font-weight="bold" lengthAdjust="spacing" textLength="7" x="130.5" y="324.0498">5</text><text fill="#000000" font-family="sans-serif" font-size="13" lengthAdjust="spacing" textLength="36" x="141.5" y="324.0498">Revert</text><line style="stroke:#000000;stroke-width:1.0;stroke-dasharray:2.0,2.0;" x1="58" x2="604.5" y1="344.9063" y2="344.9063"/><text fill="#000000" font-family="sans-serif" font-size="11" font-weight="bold" lengthAdjust="spacing" textLength="112" x="63" y="356.3252">[Module is disabled]</text><polygon fill="#181818" points="124.5,378.0938,114.5,382.0938,124.5,386.0938,120.5,382.0938" style="stroke:#181818;stroke-width:1.0;"/><line style="stroke:#181818;stroke-width:1.0;stroke-dasharray:2.0,2.0;" x1="118.5" x2="457.5" y1="382.0938" y2="382.0938"/><text fill="#000000" font-family="sans-serif" font-size="13" font-weight="bold" lengthAdjust="spacing" textLength="7" x="130.5" y="377.2373">6</text><text fill="#000000" font-family="sans-serif" font-size="13" lengthAdjust="spacing" textLength="36" x="141.5" y="377.2373">Revert</text><!--SRC=[ZL3BQiD03BphAtHi8Va17m86vz13QKaXTzbIOCj66_PXwDzdvKtQ1bEeG0T9CwEHgEIWvJnA1A0fXuY3N7puglMjfD3psId0VO3R7GxzMtT3mXrX_VSedy7fQ-3YfKDFHQUAVQhPCqT9QOCk7UGaCP8VN9f2qRmVbKOl_5mz-8oDNN4ehGzOmoP7yewHbcsaR3QMcSN3QjokpNn8DWBE59t9flzJgr5ZuAMrOM6AJu8lEl_oPF_wszBk-vaT7cIMc9kECi0YzdCujuNjyhMzbOvfN040]--></g></svg>