<?xml version="1.0" encoding="us-ascii" standalone="no"?><svg xmlns="http://www.w3.org/2000/svg" xmlns:xlink="http://www.w3.org/1999/xlink" contentStyleType="text/css" height="1308px" preserveAspectRatio="none" style="width:1165px;height:1308px;background:#FFFFFF;" version="1.1" viewBox="0 0 1165 1308" width="1165px" zoomAndPan="magnify"><defs/><g><rect fill="none" height="1079.6953" style="stroke:#000000;stroke-width:1.5;" width="1148.5" x="10" y="129.9609"/><rect fill="none" height="1001.1563" style="stroke:#000000;stroke-width:1.5;" width="1128.5" x="20" y="155.3125"/><rect fill="none" height="879.2656" style="stroke:#000000;stroke-width:1.5;" width="1108.5" x="30" y="224.0156"/><rect fill="none" height="800.7266" style="stroke:#000000;stroke-width:1.5;" width="1088.5" x="40" y="249.3672"/><rect fill="none" height="722.1875" style="stroke:#000000;stroke-width:1.5;" width="1068.5" x="50" y="274.7188"/><rect fill="none" height="239.9453" style="stroke:#000000;stroke-width:1.5;" width="259" x="511.5" y="343.4219"/><rect fill="none" height="207.5938" style="stroke:#000000;stroke-width:1.5;" width="239" x="521.5" y="368.7734"/><rect fill="none" height="316" style="stroke:#000000;stroke-width:1.5;" width="1048.5" x="60" y="597.3672"/><line style="stroke:#181818;stroke-width:0.5;stroke-dasharray:5.0,5.0;" x1="100" x2="100" y1="82.6094" y2="1226.6563"/><line style="stroke:#181818;stroke-width:0.5;stroke-dasharray:5.0,5.0;" x1="583.5" x2="583.5" y1="82.6094" y2="1226.6563"/><line style="stroke:#181818;stroke-width:0.5;stroke-dasharray:5.0,5.0;" x1="885.5" x2="885.5" y1="82.6094" y2="1226.6563"/><line style="stroke:#181818;stroke-width:0.5;stroke-dasharray:5.0,5.0;" x1="976.5" x2="976.5" y1="82.6094" y2="1226.6563"/><line style="stroke:#181818;stroke-width:0.5;stroke-dasharray:5.0,5.0;" x1="1060.5" x2="1060.5" y1="82.6094" y2="1226.6563"/><text fill="#000000" font-family="sans-serif" font-size="14" lengthAdjust="spacing" textLength="55" x="70" y="79.5332">Backend</text><ellipse cx="100.5" cy="13.5" fill="#E2E2F0" rx="8" ry="8" style="stroke:#181818;stroke-width:0.5;"/><path d="M100.5,21.5 L100.5,48.5 M87.5,29.5 L113.5,29.5 M100.5,48.5 L87.5,63.5 M100.5,48.5 L113.5,63.5 " fill="none" style="stroke:#181818;stroke-width:0.5;"/><text fill="#000000" font-family="sans-serif" font-size="14" lengthAdjust="spacing" textLength="55" x="70" y="1240.1895">Backend</text><ellipse cx="100.5" cy="1251.7656" fill="#E2E2F0" rx="8" ry="8" style="stroke:#181818;stroke-width:0.5;"/><path d="M100.5,1259.7656 L100.5,1286.7656 M87.5,1267.7656 L113.5,1267.7656 M100.5,1286.7656 L87.5,1301.7656 M100.5,1286.7656 L113.5,1301.7656 " fill="none" style="stroke:#181818;stroke-width:0.5;"/><rect fill="#E2E2F0" height="31.6094" rx="2.5" ry="2.5" style="stroke:#181818;stroke-width:0.5;" width="104" x="531.5" y="50"/><text fill="#000000" font-family="sans-serif" font-size="14" lengthAdjust="spacing" textLength="90" x="538.5" y="71.5332">PrejoinModule</text><rect fill="#E2E2F0" height="31.6094" rx="2.5" ry="2.5" style="stroke:#181818;stroke-width:0.5;" width="104" x="531.5" y="1225.6563"/><text fill="#000000" font-family="sans-serif" font-size="14" lengthAdjust="spacing" textLength="90" x="538.5" y="1247.1895">PrejoinModule</text><rect fill="#E2E2F0" height="31.6094" rx="2.5" ry="2.5" style="stroke:#181818;stroke-width:0.5;" width="92" x="839.5" y="50"/><text fill="#000000" font-family="sans-serif" font-size="14" lengthAdjust="spacing" textLength="78" x="846.5" y="71.5332">CouponPool</text><rect fill="#E2E2F0" height="31.6094" rx="2.5" ry="2.5" style="stroke:#181818;stroke-width:0.5;" width="92" x="839.5" y="1225.6563"/><text fill="#000000" font-family="sans-serif" font-size="14" lengthAdjust="spacing" textLength="78" x="846.5" y="1247.1895">CouponPool</text><rect fill="#E2E2F0" height="31.6094" rx="2.5" ry="2.5" style="stroke:#181818;stroke-width:0.5;" width="71" x="941.5" y="50"/><text fill="#000000" font-family="sans-serif" font-size="14" lengthAdjust="spacing" textLength="57" x="948.5" y="71.5332">Operator</text><rect fill="#E2E2F0" height="31.6094" rx="2.5" ry="2.5" style="stroke:#181818;stroke-width:0.5;" width="71" x="941.5" y="1225.6563"/><text fill="#000000" font-family="sans-serif" font-size="14" lengthAdjust="spacing" textLength="57" x="948.5" y="1247.1895">Operator</text><rect fill="#E2E2F0" height="31.6094" rx="2.5" ry="2.5" style="stroke:#181818;stroke-width:0.5;" width="76" x="1022.5" y="50"/><text fill="#000000" font-family="sans-serif" font-size="14" lengthAdjust="spacing" textLength="62" x="1029.5" y="71.5332">BMOracle</text><rect fill="#E2E2F0" height="31.6094" rx="2.5" ry="2.5" style="stroke:#181818;stroke-width:0.5;" width="76" x="1022.5" y="1225.6563"/><text fill="#000000" font-family="sans-serif" font-size="14" lengthAdjust="spacing" textLength="62" x="1029.5" y="1247.1895">BMOracle</text><polygon fill="#181818" points="571.5,110.9609,581.5,114.9609,571.5,118.9609,575.5,114.9609" style="stroke:#181818;stroke-width:1.0;"/><line style="stroke:#181818;stroke-width:1.0;" x1="100.5" x2="577.5" y1="114.9609" y2="114.9609"/><text fill="#000000" font-family="sans-serif" font-size="13" font-weight="bold" lengthAdjust="spacing" textLength="7" x="107.5" y="110.1045">1</text><text fill="#000000" font-family="sans-serif" font-size="13" lengthAdjust="spacing" textLength="448" x="118.5" y="110.1045">payContributionOnBehalfOf(contribution, parent, newMember, couponAmount)</text><path d="M10,129.9609 L71,129.9609 L71,138.3125 L61,148.3125 L10,148.3125 L10,129.9609 " fill="#EEEEEE" style="stroke:#000000;stroke-width:1.5;"/><rect fill="none" height="1079.6953" style="stroke:#000000;stroke-width:1.5;" width="1148.5" x="10" y="129.9609"/><text fill="#000000" font-family="sans-serif" font-size="13" font-weight="bold" lengthAdjust="spacing" textLength="16" x="25" y="144.4561">alt</text><text fill="#000000" font-family="sans-serif" font-size="11" font-weight="bold" lengthAdjust="spacing" textLength="109" x="86" y="143.3799">[Module is enabled]</text><path d="M20,155.3125 L81,155.3125 L81,163.6641 L71,173.6641 L20,173.6641 L20,155.3125 " fill="#EEEEEE" style="stroke:#000000;stroke-width:1.5;"/><rect fill="none" height="1001.1563" style="stroke:#000000;stroke-width:1.5;" width="1128.5" x="20" y="155.3125"/><text fill="#000000" font-family="sans-serif" font-size="13" font-weight="bold" lengthAdjust="spacing" textLength="16" x="35" y="169.8076">alt</text><text fill="#000000" font-family="sans-serif" font-size="11" font-weight="bold" lengthAdjust="spacing" textLength="134" x="96" y="168.7314">[preJoinEnabled == true]</text><line style="stroke:#181818;stroke-width:1.0;stroke-dasharray:2.0,2.0;" x1="583.5" x2="625.5" y1="196.0156" y2="196.0156"/><line style="stroke:#181818;stroke-width:1.0;stroke-dasharray:2.0,2.0;" x1="625.5" x2="625.5" y1="196.0156" y2="209.0156"/><line style="stroke:#181818;stroke-width:1.0;stroke-dasharray:2.0,2.0;" x1="584.5" x2="625.5" y1="209.0156" y2="209.0156"/><polygon fill="#181818" points="594.5,205.0156,584.5,209.0156,594.5,213.0156,590.5,209.0156" style="stroke:#181818;stroke-width:1.0;"/><text fill="#000000" font-family="sans-serif" font-size="13" font-weight="bold" lengthAdjust="spacing" textLength="7" x="590.5" y="191.1592">2</text><text fill="#000000" font-family="sans-serif" font-size="13" lengthAdjust="spacing" textLength="277" x="601.5" y="191.1592">substract coupon amount from payment amount</text><path d="M30,224.0156 L91,224.0156 L91,232.3672 L81,242.3672 L30,242.3672 L30,224.0156 " fill="#EEEEEE" style="stroke:#000000;stroke-width:1.5;"/><rect fill="none" height="879.2656" style="stroke:#000000;stroke-width:1.5;" width="1108.5" x="30" y="224.0156"/><text fill="#000000" font-family="sans-serif" font-size="13" font-weight="bold" lengthAdjust="spacing" textLength="16" x="45" y="238.5107">alt</text><text fill="#000000" font-family="sans-serif" font-size="11" font-weight="bold" lengthAdjust="spacing" textLength="138" x="106" y="237.4346">[Contribution is in range]</text><path d="M40,249.3672 L101,249.3672 L101,257.7188 L91,267.7188 L40,267.7188 L40,249.3672 " fill="#EEEEEE" style="stroke:#000000;stroke-width:1.5;"/><rect fill="none" height="800.7266" style="stroke:#000000;stroke-width:1.5;" width="1088.5" x="40" y="249.3672"/><text fill="#000000" font-family="sans-serif" font-size="13" font-weight="bold" lengthAdjust="spacing" textLength="16" x="55" y="263.8623">alt</text><text fill="#000000" font-family="sans-serif" font-size="11" font-weight="bold" lengthAdjust="spacing" textLength="96" x="116" y="262.7861">[Parent is KYCed]</text><path d="M50,274.7188 L111,274.7188 L111,283.0703 L101,293.0703 L50,293.0703 L50,274.7188 " fill="#EEEEEE" style="stroke:#000000;stroke-width:1.5;"/><rect fill="none" height="722.1875" style="stroke:#000000;stroke-width:1.5;" width="1068.5" x="50" y="274.7188"/><text fill="#000000" font-family="sans-serif" font-size="13" font-weight="bold" lengthAdjust="spacing" textLength="16" x="65" y="289.2139">alt</text><text fill="#000000" font-family="sans-serif" font-size="11" font-weight="bold" lengthAdjust="spacing" textLength="137" x="126" y="288.1377">[Is not existing member]</text><line style="stroke:#181818;stroke-width:1.0;stroke-dasharray:2.0,2.0;" x1="583.5" x2="625.5" y1="315.4219" y2="315.4219"/><line style="stroke:#181818;stroke-width:1.0;stroke-dasharray:2.0,2.0;" x1="625.5" x2="625.5" y1="315.4219" y2="328.4219"/><line style="stroke:#181818;stroke-width:1.0;stroke-dasharray:2.0,2.0;" x1="584.5" x2="625.5" y1="328.4219" y2="328.4219"/><polygon fill="#181818" points="594.5,324.4219,584.5,328.4219,594.5,332.4219,590.5,328.4219" style="stroke:#181818;stroke-width:1.0;"/><text fill="#000000" font-family="sans-serif" font-size="13" font-weight="bold" lengthAdjust="spacing" textLength="7" x="590.5" y="310.5654">3</text><text fill="#000000" font-family="sans-serif" font-size="13" lengthAdjust="spacing" textLength="126" x="601.5" y="310.5654">apply prejoin discount</text><path d="M511.5,343.4219 L572.5,343.4219 L572.5,351.7734 L562.5,361.7734 L511.5,361.7734 L511.5,343.4219 " fill="#EEEEEE" style="stroke:#000000;stroke-width:1.5;"/><rect fill="none" height="239.9453" style="stroke:#000000;stroke-width:1.5;" width="259" x="511.5" y="343.4219"/><text fill="#000000" font-family="sans-serif" font-size="13" font-weight="bold" lengthAdjust="spacing" textLength="16" x="526.5" y="357.917">alt</text><text fill="#000000" font-family="sans-serif" font-size="11" font-weight="bold" lengthAdjust="spacing" textLength="139" x="587.5" y="356.8408">[referralDiscount == true]</text><path d="M521.5,368.7734 L582.5,368.7734 L582.5,377.125 L572.5,387.125 L521.5,387.125 L521.5,368.7734 " fill="#EEEEEE" style="stroke:#000000;stroke-width:1.5;"/><rect fill="none" height="207.5938" style="stroke:#000000;stroke-width:1.5;" width="239" x="521.5" y="368.7734"/><text fill="#000000" font-family="sans-serif" font-size="13" font-weight="bold" lengthAdjust="spacing" textLength="16" x="536.5" y="383.2686">alt</text><text fill="#000000" font-family="sans-serif" font-size="11" font-weight="bold" lengthAdjust="spacing" textLength="119" x="597.5" y="382.1924">[parent != address(0)]</text><line style="stroke:#181818;stroke-width:1.0;stroke-dasharray:2.0,2.0;" x1="583.5" x2="625.5" y1="409.4766" y2="409.4766"/><line style="stroke:#181818;stroke-width:1.0;stroke-dasharray:2.0,2.0;" x1="625.5" x2="625.5" y1="409.4766" y2="422.4766"/><line style="stroke:#181818;stroke-width:1.0;stroke-dasharray:2.0,2.0;" x1="584.5" x2="625.5" y1="422.4766" y2="422.4766"/><polygon fill="#181818" points="594.5,418.4766,584.5,422.4766,594.5,426.4766,590.5,422.4766" style="stroke:#181818;stroke-width:1.0;"/><text fill="#000000" font-family="sans-serif" font-size="13" font-weight="bold" lengthAdjust="spacing" textLength="7" x="590.5" y="404.6201">4</text><text fill="#000000" font-family="sans-serif" font-size="13" lengthAdjust="spacing" textLength="127" x="601.5" y="404.6201">apply referral discount</text><line style="stroke:#181818;stroke-width:1.0;stroke-dasharray:2.0,2.0;" x1="583.5" x2="625.5" y1="452.8281" y2="452.8281"/><line style="stroke:#181818;stroke-width:1.0;stroke-dasharray:2.0,2.0;" x1="625.5" x2="625.5" y1="452.8281" y2="465.8281"/><line style="stroke:#181818;stroke-width:1.0;stroke-dasharray:2.0,2.0;" x1="584.5" x2="625.5" y1="465.8281" y2="465.8281"/><polygon fill="#181818" points="594.5,461.8281,584.5,465.8281,594.5,469.8281,590.5,465.8281" style="stroke:#181818;stroke-width:1.0;"/><text fill="#000000" font-family="sans-serif" font-size="13" font-weight="bold" lengthAdjust="spacing" textLength="7" x="590.5" y="447.9717">5</text><text fill="#000000" font-family="sans-serif" font-size="13" lengthAdjust="spacing" textLength="124" x="601.5" y="447.9717">assign child to parent</text><line style="stroke:#181818;stroke-width:1.0;stroke-dasharray:2.0,2.0;" x1="583.5" x2="625.5" y1="496.1797" y2="496.1797"/><line style="stroke:#181818;stroke-width:1.0;stroke-dasharray:2.0,2.0;" x1="625.5" x2="625.5" y1="496.1797" y2="509.1797"/><line style="stroke:#181818;stroke-width:1.0;stroke-dasharray:2.0,2.0;" x1="584.5" x2="625.5" y1="509.1797" y2="509.1797"/><polygon fill="#181818" points="594.5,505.1797,584.5,509.1797,594.5,513.1797,590.5,509.1797" style="stroke:#181818;stroke-width:1.0;"/><text fill="#000000" font-family="sans-serif" font-size="13" font-weight="bold" lengthAdjust="spacing" textLength="7" x="590.5" y="491.3232">6</text><text fill="#000000" font-family="sans-serif" font-size="13" lengthAdjust="spacing" textLength="134" x="601.5" y="491.3232">calculate parent reward</text><line style="stroke:#000000;stroke-width:1.0;stroke-dasharray:2.0,2.0;" x1="521.5" x2="760.5" y1="518.1797" y2="518.1797"/><text fill="#000000" font-family="sans-serif" font-size="11" font-weight="bold" lengthAdjust="spacing" textLength="122" x="526.5" y="529.5986">[parent == address(0)]</text><line style="stroke:#181818;stroke-width:1.0;stroke-dasharray:2.0,2.0;" x1="583.5" x2="625.5" y1="555.3672" y2="555.3672"/><line style="stroke:#181818;stroke-width:1.0;stroke-dasharray:2.0,2.0;" x1="625.5" x2="625.5" y1="555.3672" y2="568.3672"/><line style="stroke:#181818;stroke-width:1.0;stroke-dasharray:2.0,2.0;" x1="584.5" x2="625.5" y1="568.3672" y2="568.3672"/><polygon fill="#181818" points="594.5,564.3672,584.5,568.3672,594.5,572.3672,590.5,568.3672" style="stroke:#181818;stroke-width:1.0;"/><text fill="#000000" font-family="sans-serif" font-size="13" font-weight="bold" lengthAdjust="spacing" textLength="7" x="590.5" y="550.5107">7</text><text fill="#000000" font-family="sans-serif" font-size="13" lengthAdjust="spacing" textLength="147" x="601.5" y="550.5107">increase Referral Reserve</text><path d="M60,597.3672 L121,597.3672 L121,605.7188 L111,615.7188 L60,615.7188 L60,597.3672 " fill="#EEEEEE" style="stroke:#000000;stroke-width:1.5;"/><rect fill="none" height="316" style="stroke:#000000;stroke-width:1.5;" width="1048.5" x="60" y="597.3672"/><text fill="#000000" font-family="sans-serif" font-size="13" font-weight="bold" lengthAdjust="spacing" textLength="16" x="75" y="611.8623">alt</text><text fill="#000000" font-family="sans-serif" font-size="11" font-weight="bold" lengthAdjust="spacing" textLength="128" x="136" y="610.7861">[Invariant checks pass]</text><line style="stroke:#181818;stroke-width:1.0;stroke-dasharray:2.0,2.0;" x1="583.5" x2="625.5" y1="638.0703" y2="638.0703"/><line style="stroke:#181818;stroke-width:1.0;stroke-dasharray:2.0,2.0;" x1="625.5" x2="625.5" y1="638.0703" y2="651.0703"/><line style="stroke:#181818;stroke-width:1.0;stroke-dasharray:2.0,2.0;" x1="584.5" x2="625.5" y1="651.0703" y2="651.0703"/><polygon fill="#181818" points="594.5,647.0703,584.5,651.0703,594.5,655.0703,590.5,651.0703" style="stroke:#181818;stroke-width:1.0;"/><text fill="#000000" font-family="sans-serif" font-size="13" font-weight="bold" lengthAdjust="spacing" textLength="7" x="590.5" y="633.2139">8</text><text fill="#000000" font-family="sans-serif" font-size="13" lengthAdjust="spacing" textLength="127" x="601.5" y="633.2139">update repool balance</text><line style="stroke:#181818;stroke-width:1.0;stroke-dasharray:2.0,2.0;" x1="583.5" x2="625.5" y1="681.4219" y2="681.4219"/><line style="stroke:#181818;stroke-width:1.0;stroke-dasharray:2.0,2.0;" x1="625.5" x2="625.5" y1="681.4219" y2="694.4219"/><line style="stroke:#181818;stroke-width:1.0;stroke-dasharray:2.0,2.0;" x1="584.5" x2="625.5" y1="694.4219" y2="694.4219"/><polygon fill="#181818" points="594.5,690.4219,584.5,694.4219,594.5,698.4219,590.5,694.4219" style="stroke:#181818;stroke-width:1.0;"/><text fill="#000000" font-family="sans-serif" font-size="13" font-weight="bold" lengthAdjust="spacing" textLength="7" x="590.5" y="676.5654">9</text><text fill="#000000" font-family="sans-serif" font-size="13" lengthAdjust="spacing" textLength="125" x="601.5" y="676.5654">update DAO variables</text><polygon fill="#181818" points="594.5,720.7734,584.5,724.7734,594.5,728.7734,590.5,724.7734" style="stroke:#181818;stroke-width:1.0;"/><line style="stroke:#181818;stroke-width:1.0;stroke-dasharray:2.0,2.0;" x1="588.5" x2="884.5" y1="724.7734" y2="724.7734"/><text fill="#000000" font-family="sans-serif" font-size="13" font-weight="bold" lengthAdjust="spacing" textLength="14" x="600.5" y="719.917">10</text><text fill="#000000" font-family="sans-serif" font-size="13" lengthAdjust="spacing" textLength="119" x="618.5" y="719.917">Transfer Contribution</text><polygon fill="#181818" points="965,751.125,975,755.125,965,759.125,969,755.125" style="stroke:#181818;stroke-width:1.0;"/><line style="stroke:#181818;stroke-width:1.0;stroke-dasharray:2.0,2.0;" x1="583.5" x2="971" y1="755.125" y2="755.125"/><text fill="#000000" font-family="sans-serif" font-size="13" font-weight="bold" lengthAdjust="spacing" textLength="14" x="590.5" y="750.2686">11</text><text fill="#000000" font-family="sans-serif" font-size="13" lengthAdjust="spacing" textLength="72" x="608.5" y="750.2686">Transfer Fee</text><line style="stroke:#181818;stroke-width:1.0;stroke-dasharray:2.0,2.0;" x1="583.5" x2="625.5" y1="785.4766" y2="785.4766"/><line style="stroke:#181818;stroke-width:1.0;stroke-dasharray:2.0,2.0;" x1="625.5" x2="625.5" y1="785.4766" y2="798.4766"/><line style="stroke:#181818;stroke-width:1.0;stroke-dasharray:2.0,2.0;" x1="584.5" x2="625.5" y1="798.4766" y2="798.4766"/><polygon fill="#181818" points="594.5,794.4766,584.5,798.4766,594.5,802.4766,590.5,798.4766" style="stroke:#181818;stroke-width:1.0;"/><text fill="#000000" font-family="sans-serif" font-size="13" font-weight="bold" lengthAdjust="spacing" textLength="14" x="590.5" y="780.6201">12</text><text fill="#000000" font-family="sans-serif" font-size="13" lengthAdjust="spacing" textLength="114" x="608.5" y="780.6201">create new member</text><polygon fill="#181818" points="1048.5,824.8281,1058.5,828.8281,1048.5,832.8281,1052.5,828.8281" style="stroke:#181818;stroke-width:1.0;"/><line style="stroke:#181818;stroke-width:1.0;stroke-dasharray:2.0,2.0;" x1="583.5" x2="1054.5" y1="828.8281" y2="828.8281"/><text fill="#000000" font-family="sans-serif" font-size="13" font-weight="bold" lengthAdjust="spacing" textLength="14" x="590.5" y="823.9717">13</text><text fill="#000000" font-family="sans-serif" font-size="13" lengthAdjust="spacing" textLength="72" x="608.5" y="823.9717">Request BM</text><polygon fill="#181818" points="111.5,855.1797,101.5,859.1797,111.5,863.1797,107.5,859.1797" style="stroke:#181818;stroke-width:1.0;"/><line style="stroke:#181818;stroke-width:1.0;stroke-dasharray:2.0,2.0;" x1="105.5" x2="582.5" y1="859.1797" y2="859.1797"/><text fill="#000000" font-family="sans-serif" font-size="13" font-weight="bold" lengthAdjust="spacing" textLength="14" x="117.5" y="854.3232">14</text><text fill="#000000" font-family="sans-serif" font-size="13" lengthAdjust="spacing" textLength="152" x="135.5" y="854.3232">Emit OnPrepayment event</text><line style="stroke:#000000;stroke-width:1.0;stroke-dasharray:2.0,2.0;" x1="60" x2="1108.5" y1="868.1797" y2="868.1797"/><text fill="#000000" font-family="sans-serif" font-size="11" font-weight="bold" lengthAdjust="spacing" textLength="81" x="65" y="879.5986">[Invariant fails]</text><polygon fill="#181818" points="111.5,901.3672,101.5,905.3672,111.5,909.3672,107.5,905.3672" style="stroke:#181818;stroke-width:1.0;"/><line style="stroke:#181818;stroke-width:1.0;stroke-dasharray:2.0,2.0;" x1="105.5" x2="582.5" y1="905.3672" y2="905.3672"/><text fill="#000000" font-family="sans-serif" font-size="13" font-weight="bold" lengthAdjust="spacing" textLength="14" x="117.5" y="900.5107">15</text><text fill="#000000" font-family="sans-serif" font-size="13" lengthAdjust="spacing" textLength="36" x="135.5" y="900.5107">Revert</text><polygon fill="#181818" points="111.5,938.7188,101.5,942.7188,111.5,946.7188,107.5,942.7188" style="stroke:#181818;stroke-width:1.0;"/><line style="stroke:#181818;stroke-width:1.0;stroke-dasharray:2.0,2.0;" x1="105.5" x2="582.5" y1="942.7188" y2="942.7188"/><text fill="#000000" font-family="sans-serif" font-size="13" font-weight="bold" lengthAdjust="spacing" textLength="14" x="117.5" y="937.8623">16</text><text fill="#000000" font-family="sans-serif" font-size="13" lengthAdjust="spacing" textLength="188" x="135.5" y="937.8623">Emit OnCouponRedeemed event</text><line style="stroke:#000000;stroke-width:1.0;stroke-dasharray:2.0,2.0;" x1="50" x2="1118.5" y1="951.7188" y2="951.7188"/><text fill="#000000" font-family="sans-serif" font-size="11" font-weight="bold" lengthAdjust="spacing" textLength="116" x="55" y="963.1377">[Is existing member]</text><polygon fill="#181818" points="111.5,984.9063,101.5,988.9063,111.5,992.9063,107.5,988.9063" style="stroke:#181818;stroke-width:1.0;"/><line style="stroke:#181818;stroke-width:1.0;stroke-dasharray:2.0,2.0;" x1="105.5" x2="582.5" y1="988.9063" y2="988.9063"/><text fill="#000000" font-family="sans-serif" font-size="13" font-weight="bold" lengthAdjust="spacing" textLength="14" x="117.5" y="984.0498">17</text><text fill="#000000" font-family="sans-serif" font-size="13" lengthAdjust="spacing" textLength="36" x="135.5" y="984.0498">Revert</text><line style="stroke:#000000;stroke-width:1.0;stroke-dasharray:2.0,2.0;" x1="40" x2="1128.5" y1="1004.9063" y2="1004.9063"/><text fill="#000000" font-family="sans-serif" font-size="11" font-weight="bold" lengthAdjust="spacing" textLength="117" x="45" y="1016.3252">[Parent is not KYCed]</text><polygon fill="#181818" points="111.5,1038.0938,101.5,1042.0938,111.5,1046.0938,107.5,1042.0938" style="stroke:#181818;stroke-width:1.0;"/><line style="stroke:#181818;stroke-width:1.0;stroke-dasharray:2.0,2.0;" x1="105.5" x2="582.5" y1="1042.0938" y2="1042.0938"/><text fill="#000000" font-family="sans-serif" font-size="13" font-weight="bold" lengthAdjust="spacing" textLength="14" x="117.5" y="1037.2373">18</text><text fill="#000000" font-family="sans-serif" font-size="13" lengthAdjust="spacing" textLength="36" x="135.5" y="1037.2373">Revert</text><line style="stroke:#000000;stroke-width:1.0;stroke-dasharray:2.0,2.0;" x1="30" x2="1138.5" y1="1058.0938" y2="1058.0938"/><text fill="#000000" font-family="sans-serif" font-size="11" font-weight="bold" lengthAdjust="spacing" textLength="160" x="35" y="1069.5127">[Contribution is out of range]</text><polygon fill="#181818" points="111.5,1091.2813,101.5,1095.2813,111.5,1099.2813,107.5,1095.2813" style="stroke:#181818;stroke-width:1.0;"/><line style="stroke:#181818;stroke-width:1.0;stroke-dasharray:2.0,2.0;" x1="105.5" x2="582.5" y1="1095.2813" y2="1095.2813"/><text fill="#000000" font-family="sans-serif" font-size="13" font-weight="bold" lengthAdjust="spacing" textLength="14" x="117.5" y="1090.4248">19</text><text fill="#000000" font-family="sans-serif" font-size="13" lengthAdjust="spacing" textLength="36" x="135.5" y="1090.4248">Revert</text><line style="stroke:#000000;stroke-width:1.0;stroke-dasharray:2.0,2.0;" x1="20" x2="1148.5" y1="1111.2813" y2="1111.2813"/><text fill="#000000" font-family="sans-serif" font-size="11" font-weight="bold" lengthAdjust="spacing" textLength="138" x="25" y="1122.7002">[preJoinEnabled == false]</text><polygon fill="#181818" points="111.5,1144.4688,101.5,1148.4688,111.5,1152.4688,107.5,1148.4688" style="stroke:#181818;stroke-width:1.0;"/><line style="stroke:#181818;stroke-width:1.0;" x1="105.5" x2="582.5" y1="1148.4688" y2="1148.4688"/><text fill="#000000" font-family="sans-serif" font-size="13" font-weight="bold" lengthAdjust="spacing" textLength="14" x="117.5" y="1143.6123">20</text><text fill="#000000" font-family="sans-serif" font-size="13" lengthAdjust="spacing" textLength="36" x="135.5" y="1143.6123">Revert</text><line style="stroke:#000000;stroke-width:1.0;stroke-dasharray:2.0,2.0;" x1="10" x2="1158.5" y1="1164.4688" y2="1164.4688"/><text fill="#000000" font-family="sans-serif" font-size="11" font-weight="bold" lengthAdjust="spacing" textLength="112" x="15" y="1175.8877">[Module is disabled]</text><polygon fill="#181818" points="111.5,1197.6563,101.5,1201.6563,111.5,1205.6563,107.5,1201.6563" style="stroke:#181818;stroke-width:1.0;"/><line style="stroke:#181818;stroke-width:1.0;" x1="105.5" x2="582.5" y1="1201.6563" y2="1201.6563"/><text fill="#000000" font-family="sans-serif" font-size="13" font-weight="bold" lengthAdjust="spacing" textLength="14" x="117.5" y="1196.7998">21</text><text fill="#000000" font-family="sans-serif" font-size="13" lengthAdjust="spacing" textLength="36" x="135.5" y="1196.7998">Revert</text><!--SRC=[hLPBRzim3BxdLt2t5aY1dGjaG9DsG3S43e9TTcHaEj4gIvuUwVhlHybsd8UDD4rrCcZwUr0IQGpUw52ko8v6ABonC4NnGZeVZPe7kFi62qj_ZDHpamT5zr3XsyneR-KgU6bqfgUqGLLanOtO2uyvpvBsOz3qEgV8CGPXGcNqGsc2zhTCgJpKg20TaCQLedm4lEARoj8Ffdsgmp2PWBU1qkku3bJ1tQbE5rREMxRLq08cNYYiAQE9ajKriHrevDqt5tL93HRrkcDk4nV9O4pv-NlM23_EUNQWZGVw9vsNUWqbrTM6ddNM4LQLUejrYK78fHD9V2zO9BTKaBMe7flCjeR7kRq0ksseNNwP0EQv9UTkljuEVd21ZLPSv-CwKEVaMeFOI9M3Dutiwp05AX4KUcgBOEaLRJu8IihjKYUVLo-fXILaw6LRiYKvibiQ5gBxHQQRFRJHptgBLY9h5niIBuwTE3VwiEfGvR5obYfZ5AnGeHPqDTpZGmP99lU4ON6pTE4NaRW7wXTVPyULFBZf5oZBAhB8pN8FwJjTOItkBblZFjcsX_T3JUSPjxY8igI_WPpdo2MVrrt-7fvAwI7JdD5sHjhIK6z9vxmxBWLAvJv2kcGEwoyxgUSzr9k_f9oevBanuAFsu4uwy-TOE96VwBg14MT2_z2uZEk09t4SJoyJF9YYPuAzdsX7KlUtax5S8CU7vd8_R89CSDtyvpdG_G2SHOa8_m40]--></g></svg>