<?xml version="1.0" encoding="us-ascii" standalone="no"?><svg xmlns="http://www.w3.org/2000/svg" xmlns:xlink="http://www.w3.org/1999/xlink" contentStyleType="text/css" height="1235px" preserveAspectRatio="none" style="width:706px;height:1235px;background:#FFFFFF;" version="1.1" viewBox="0 0 706 1235" width="706px" zoomAndPan="magnify"><defs/><g><rect fill="none" height="1005.9922" style="stroke:#000000;stroke-width:1.5;" width="689.5" x="10" y="129.9609"/><rect fill="none" height="927.4531" style="stroke:#000000;stroke-width:1.5;" width="669.5" x="20" y="155.3125"/><rect fill="none" height="848.9141" style="stroke:#000000;stroke-width:1.5;" width="649.5" x="30" y="180.6641"/><rect fill="none" height="770.375" style="stroke:#000000;stroke-width:1.5;" width="629.5" x="40" y="206.0156"/><rect fill="none" height="691.8359" style="stroke:#000000;stroke-width:1.5;" width="609.5" x="50" y="231.3672"/><rect fill="none" height="239.9453" style="stroke:#000000;stroke-width:1.5;" width="259" x="274" y="300.0703"/><rect fill="none" height="207.5938" style="stroke:#000000;stroke-width:1.5;" width="239" x="284" y="325.4219"/><rect fill="none" height="316" style="stroke:#000000;stroke-width:1.5;" width="589.5" x="60" y="554.0156"/><line style="stroke:#181818;stroke-width:0.5;stroke-dasharray:5.0,5.0;" x1="102" x2="102" y1="82.6094" y2="1152.9531"/><line style="stroke:#181818;stroke-width:0.5;stroke-dasharray:5.0,5.0;" x1="346" x2="346" y1="82.6094" y2="1152.9531"/><line style="stroke:#181818;stroke-width:0.5;stroke-dasharray:5.0,5.0;" x1="517.5" x2="517.5" y1="82.6094" y2="1152.9531"/><line style="stroke:#181818;stroke-width:0.5;stroke-dasharray:5.0,5.0;" x1="601.5" x2="601.5" y1="82.6094" y2="1152.9531"/><text fill="#000000" font-family="sans-serif" font-size="14" lengthAdjust="spacing" textLength="58" x="70" y="79.5332">Prepayer</text><ellipse cx="102" cy="13.5" fill="#E2E2F0" rx="8" ry="8" style="stroke:#181818;stroke-width:0.5;"/><path d="M102,21.5 L102,48.5 M89,29.5 L115,29.5 M102,48.5 L89,63.5 M102,48.5 L115,63.5 " fill="none" style="stroke:#181818;stroke-width:0.5;"/><text fill="#000000" font-family="sans-serif" font-size="14" lengthAdjust="spacing" textLength="58" x="70" y="1166.4863">Prepayer</text><ellipse cx="102" cy="1178.0625" fill="#E2E2F0" rx="8" ry="8" style="stroke:#181818;stroke-width:0.5;"/><path d="M102,1186.0625 L102,1213.0625 M89,1194.0625 L115,1194.0625 M102,1213.0625 L89,1228.0625 M102,1213.0625 L115,1228.0625 " fill="none" style="stroke:#181818;stroke-width:0.5;"/><rect fill="#E2E2F0" height="31.6094" rx="2.5" ry="2.5" style="stroke:#181818;stroke-width:0.5;" width="104" x="294" y="50"/><text fill="#000000" font-family="sans-serif" font-size="14" lengthAdjust="spacing" textLength="90" x="301" y="71.5332">PrejoinModule</text><rect fill="#E2E2F0" height="31.6094" rx="2.5" ry="2.5" style="stroke:#181818;stroke-width:0.5;" width="104" x="294" y="1151.9531"/><text fill="#000000" font-family="sans-serif" font-size="14" lengthAdjust="spacing" textLength="90" x="301" y="1173.4863">PrejoinModule</text><rect fill="#E2E2F0" height="31.6094" rx="2.5" ry="2.5" style="stroke:#181818;stroke-width:0.5;" width="71" x="482.5" y="50"/><text fill="#000000" font-family="sans-serif" font-size="14" lengthAdjust="spacing" textLength="57" x="489.5" y="71.5332">Operator</text><rect fill="#E2E2F0" height="31.6094" rx="2.5" ry="2.5" style="stroke:#181818;stroke-width:0.5;" width="71" x="482.5" y="1151.9531"/><text fill="#000000" font-family="sans-serif" font-size="14" lengthAdjust="spacing" textLength="57" x="489.5" y="1173.4863">Operator</text><rect fill="#E2E2F0" height="31.6094" rx="2.5" ry="2.5" style="stroke:#181818;stroke-width:0.5;" width="76" x="563.5" y="50"/><text fill="#000000" font-family="sans-serif" font-size="14" lengthAdjust="spacing" textLength="62" x="570.5" y="71.5332">BMOracle</text><rect fill="#E2E2F0" height="31.6094" rx="2.5" ry="2.5" style="stroke:#181818;stroke-width:0.5;" width="76" x="563.5" y="1151.9531"/><text fill="#000000" font-family="sans-serif" font-size="14" lengthAdjust="spacing" textLength="62" x="570.5" y="1173.4863">BMOracle</text><polygon fill="#181818" points="334,110.9609,344,114.9609,334,118.9609,338,114.9609" style="stroke:#181818;stroke-width:1.0;"/><line style="stroke:#181818;stroke-width:1.0;" x1="102" x2="340" y1="114.9609" y2="114.9609"/><text fill="#000000" font-family="sans-serif" font-size="13" font-weight="bold" lengthAdjust="spacing" textLength="7" x="109" y="110.1045">1</text><text fill="#000000" font-family="sans-serif" font-size="13" lengthAdjust="spacing" textLength="209" x="120" y="110.1045">payContribution(contribution, parent)</text><path d="M10,129.9609 L71,129.9609 L71,138.3125 L61,148.3125 L10,148.3125 L10,129.9609 " fill="#EEEEEE" style="stroke:#000000;stroke-width:1.5;"/><rect fill="none" height="1005.9922" style="stroke:#000000;stroke-width:1.5;" width="689.5" x="10" y="129.9609"/><text fill="#000000" font-family="sans-serif" font-size="13" font-weight="bold" lengthAdjust="spacing" textLength="16" x="25" y="144.4561">alt</text><text fill="#000000" font-family="sans-serif" font-size="11" font-weight="bold" lengthAdjust="spacing" textLength="109" x="86" y="143.3799">[Module is enabled]</text><path d="M20,155.3125 L81,155.3125 L81,163.6641 L71,173.6641 L20,173.6641 L20,155.3125 " fill="#EEEEEE" style="stroke:#000000;stroke-width:1.5;"/><rect fill="none" height="927.4531" style="stroke:#000000;stroke-width:1.5;" width="669.5" x="20" y="155.3125"/><text fill="#000000" font-family="sans-serif" font-size="13" font-weight="bold" lengthAdjust="spacing" textLength="16" x="35" y="169.8076">alt</text><text fill="#000000" font-family="sans-serif" font-size="11" font-weight="bold" lengthAdjust="spacing" textLength="134" x="96" y="168.7314">[preJoinEnabled == true]</text><path d="M30,180.6641 L91,180.6641 L91,189.0156 L81,199.0156 L30,199.0156 L30,180.6641 " fill="#EEEEEE" style="stroke:#000000;stroke-width:1.5;"/><rect fill="none" height="848.9141" style="stroke:#000000;stroke-width:1.5;" width="649.5" x="30" y="180.6641"/><text fill="#000000" font-family="sans-serif" font-size="13" font-weight="bold" lengthAdjust="spacing" textLength="16" x="45" y="195.1592">alt</text><text fill="#000000" font-family="sans-serif" font-size="11" font-weight="bold" lengthAdjust="spacing" textLength="138" x="106" y="194.083">[Contribution is in range]</text><path d="M40,206.0156 L101,206.0156 L101,214.3672 L91,224.3672 L40,224.3672 L40,206.0156 " fill="#EEEEEE" style="stroke:#000000;stroke-width:1.5;"/><rect fill="none" height="770.375" style="stroke:#000000;stroke-width:1.5;" width="629.5" x="40" y="206.0156"/><text fill="#000000" font-family="sans-serif" font-size="13" font-weight="bold" lengthAdjust="spacing" textLength="16" x="55" y="220.5107">alt</text><text fill="#000000" font-family="sans-serif" font-size="11" font-weight="bold" lengthAdjust="spacing" textLength="96" x="116" y="219.4346">[Parent is KYCed]</text><path d="M50,231.3672 L111,231.3672 L111,239.7188 L101,249.7188 L50,249.7188 L50,231.3672 " fill="#EEEEEE" style="stroke:#000000;stroke-width:1.5;"/><rect fill="none" height="691.8359" style="stroke:#000000;stroke-width:1.5;" width="609.5" x="50" y="231.3672"/><text fill="#000000" font-family="sans-serif" font-size="13" font-weight="bold" lengthAdjust="spacing" textLength="16" x="65" y="245.8623">alt</text><text fill="#000000" font-family="sans-serif" font-size="11" font-weight="bold" lengthAdjust="spacing" textLength="137" x="126" y="244.7861">[Is not existing member]</text><line style="stroke:#181818;stroke-width:1.0;stroke-dasharray:2.0,2.0;" x1="346" x2="388" y1="272.0703" y2="272.0703"/><line style="stroke:#181818;stroke-width:1.0;stroke-dasharray:2.0,2.0;" x1="388" x2="388" y1="272.0703" y2="285.0703"/><line style="stroke:#181818;stroke-width:1.0;stroke-dasharray:2.0,2.0;" x1="347" x2="388" y1="285.0703" y2="285.0703"/><polygon fill="#181818" points="357,281.0703,347,285.0703,357,289.0703,353,285.0703" style="stroke:#181818;stroke-width:1.0;"/><text fill="#000000" font-family="sans-serif" font-size="13" font-weight="bold" lengthAdjust="spacing" textLength="7" x="353" y="267.2139">2</text><text fill="#000000" font-family="sans-serif" font-size="13" lengthAdjust="spacing" textLength="126" x="364" y="267.2139">apply prejoin discount</text><path d="M274,300.0703 L335,300.0703 L335,308.4219 L325,318.4219 L274,318.4219 L274,300.0703 " fill="#EEEEEE" style="stroke:#000000;stroke-width:1.5;"/><rect fill="none" height="239.9453" style="stroke:#000000;stroke-width:1.5;" width="259" x="274" y="300.0703"/><text fill="#000000" font-family="sans-serif" font-size="13" font-weight="bold" lengthAdjust="spacing" textLength="16" x="289" y="314.5654">alt</text><text fill="#000000" font-family="sans-serif" font-size="11" font-weight="bold" lengthAdjust="spacing" textLength="139" x="350" y="313.4893">[referralDiscount == true]</text><path d="M284,325.4219 L345,325.4219 L345,333.7734 L335,343.7734 L284,343.7734 L284,325.4219 " fill="#EEEEEE" style="stroke:#000000;stroke-width:1.5;"/><rect fill="none" height="207.5938" style="stroke:#000000;stroke-width:1.5;" width="239" x="284" y="325.4219"/><text fill="#000000" font-family="sans-serif" font-size="13" font-weight="bold" lengthAdjust="spacing" textLength="16" x="299" y="339.917">alt</text><text fill="#000000" font-family="sans-serif" font-size="11" font-weight="bold" lengthAdjust="spacing" textLength="119" x="360" y="338.8408">[parent != address(0)]</text><line style="stroke:#181818;stroke-width:1.0;stroke-dasharray:2.0,2.0;" x1="346" x2="388" y1="366.125" y2="366.125"/><line style="stroke:#181818;stroke-width:1.0;stroke-dasharray:2.0,2.0;" x1="388" x2="388" y1="366.125" y2="379.125"/><line style="stroke:#181818;stroke-width:1.0;stroke-dasharray:2.0,2.0;" x1="347" x2="388" y1="379.125" y2="379.125"/><polygon fill="#181818" points="357,375.125,347,379.125,357,383.125,353,379.125" style="stroke:#181818;stroke-width:1.0;"/><text fill="#000000" font-family="sans-serif" font-size="13" font-weight="bold" lengthAdjust="spacing" textLength="7" x="353" y="361.2686">3</text><text fill="#000000" font-family="sans-serif" font-size="13" lengthAdjust="spacing" textLength="127" x="364" y="361.2686">apply referral discount</text><line style="stroke:#181818;stroke-width:1.0;stroke-dasharray:2.0,2.0;" x1="346" x2="388" y1="409.4766" y2="409.4766"/><line style="stroke:#181818;stroke-width:1.0;stroke-dasharray:2.0,2.0;" x1="388" x2="388" y1="409.4766" y2="422.4766"/><line style="stroke:#181818;stroke-width:1.0;stroke-dasharray:2.0,2.0;" x1="347" x2="388" y1="422.4766" y2="422.4766"/><polygon fill="#181818" points="357,418.4766,347,422.4766,357,426.4766,353,422.4766" style="stroke:#181818;stroke-width:1.0;"/><text fill="#000000" font-family="sans-serif" font-size="13" font-weight="bold" lengthAdjust="spacing" textLength="7" x="353" y="404.6201">4</text><text fill="#000000" font-family="sans-serif" font-size="13" lengthAdjust="spacing" textLength="124" x="364" y="404.6201">assign child to parent</text><line style="stroke:#181818;stroke-width:1.0;stroke-dasharray:2.0,2.0;" x1="346" x2="388" y1="452.8281" y2="452.8281"/><line style="stroke:#181818;stroke-width:1.0;stroke-dasharray:2.0,2.0;" x1="388" x2="388" y1="452.8281" y2="465.8281"/><line style="stroke:#181818;stroke-width:1.0;stroke-dasharray:2.0,2.0;" x1="347" x2="388" y1="465.8281" y2="465.8281"/><polygon fill="#181818" points="357,461.8281,347,465.8281,357,469.8281,353,465.8281" style="stroke:#181818;stroke-width:1.0;"/><text fill="#000000" font-family="sans-serif" font-size="13" font-weight="bold" lengthAdjust="spacing" textLength="7" x="353" y="447.9717">5</text><text fill="#000000" font-family="sans-serif" font-size="13" lengthAdjust="spacing" textLength="134" x="364" y="447.9717">calculate parent reward</text><line style="stroke:#000000;stroke-width:1.0;stroke-dasharray:2.0,2.0;" x1="284" x2="523" y1="474.8281" y2="474.8281"/><text fill="#000000" font-family="sans-serif" font-size="11" font-weight="bold" lengthAdjust="spacing" textLength="122" x="289" y="486.2471">[parent == address(0)]</text><line style="stroke:#181818;stroke-width:1.0;stroke-dasharray:2.0,2.0;" x1="346" x2="388" y1="512.0156" y2="512.0156"/><line style="stroke:#181818;stroke-width:1.0;stroke-dasharray:2.0,2.0;" x1="388" x2="388" y1="512.0156" y2="525.0156"/><line style="stroke:#181818;stroke-width:1.0;stroke-dasharray:2.0,2.0;" x1="347" x2="388" y1="525.0156" y2="525.0156"/><polygon fill="#181818" points="357,521.0156,347,525.0156,357,529.0156,353,525.0156" style="stroke:#181818;stroke-width:1.0;"/><text fill="#000000" font-family="sans-serif" font-size="13" font-weight="bold" lengthAdjust="spacing" textLength="7" x="353" y="507.1592">6</text><text fill="#000000" font-family="sans-serif" font-size="13" lengthAdjust="spacing" textLength="147" x="364" y="507.1592">increase Referral Reserve</text><path d="M60,554.0156 L121,554.0156 L121,562.3672 L111,572.3672 L60,572.3672 L60,554.0156 " fill="#EEEEEE" style="stroke:#000000;stroke-width:1.5;"/><rect fill="none" height="316" style="stroke:#000000;stroke-width:1.5;" width="589.5" x="60" y="554.0156"/><text fill="#000000" font-family="sans-serif" font-size="13" font-weight="bold" lengthAdjust="spacing" textLength="16" x="75" y="568.5107">alt</text><text fill="#000000" font-family="sans-serif" font-size="11" font-weight="bold" lengthAdjust="spacing" textLength="128" x="136" y="567.4346">[Invariant checks pass]</text><line style="stroke:#181818;stroke-width:1.0;stroke-dasharray:2.0,2.0;" x1="346" x2="388" y1="594.7188" y2="594.7188"/><line style="stroke:#181818;stroke-width:1.0;stroke-dasharray:2.0,2.0;" x1="388" x2="388" y1="594.7188" y2="607.7188"/><line style="stroke:#181818;stroke-width:1.0;stroke-dasharray:2.0,2.0;" x1="347" x2="388" y1="607.7188" y2="607.7188"/><polygon fill="#181818" points="357,603.7188,347,607.7188,357,611.7188,353,607.7188" style="stroke:#181818;stroke-width:1.0;"/><text fill="#000000" font-family="sans-serif" font-size="13" font-weight="bold" lengthAdjust="spacing" textLength="7" x="353" y="589.8623">7</text><text fill="#000000" font-family="sans-serif" font-size="13" lengthAdjust="spacing" textLength="127" x="364" y="589.8623">update repool balance</text><line style="stroke:#181818;stroke-width:1.0;stroke-dasharray:2.0,2.0;" x1="346" x2="388" y1="638.0703" y2="638.0703"/><line style="stroke:#181818;stroke-width:1.0;stroke-dasharray:2.0,2.0;" x1="388" x2="388" y1="638.0703" y2="651.0703"/><line style="stroke:#181818;stroke-width:1.0;stroke-dasharray:2.0,2.0;" x1="347" x2="388" y1="651.0703" y2="651.0703"/><polygon fill="#181818" points="357,647.0703,347,651.0703,357,655.0703,353,651.0703" style="stroke:#181818;stroke-width:1.0;"/><text fill="#000000" font-family="sans-serif" font-size="13" font-weight="bold" lengthAdjust="spacing" textLength="7" x="353" y="633.2139">8</text><text fill="#000000" font-family="sans-serif" font-size="13" lengthAdjust="spacing" textLength="125" x="364" y="633.2139">update DAO variables</text><polygon fill="#181818" points="334,677.4219,344,681.4219,334,685.4219,338,681.4219" style="stroke:#181818;stroke-width:1.0;"/><line style="stroke:#181818;stroke-width:1.0;stroke-dasharray:2.0,2.0;" x1="102" x2="340" y1="681.4219" y2="681.4219"/><text fill="#000000" font-family="sans-serif" font-size="13" font-weight="bold" lengthAdjust="spacing" textLength="7" x="109" y="676.5654">9</text><text fill="#000000" font-family="sans-serif" font-size="13" lengthAdjust="spacing" textLength="119" x="120" y="676.5654">Transfer Contribution</text><polygon fill="#181818" points="506,707.7734,516,711.7734,506,715.7734,510,711.7734" style="stroke:#181818;stroke-width:1.0;"/><line style="stroke:#181818;stroke-width:1.0;stroke-dasharray:2.0,2.0;" x1="346" x2="512" y1="711.7734" y2="711.7734"/><text fill="#000000" font-family="sans-serif" font-size="13" font-weight="bold" lengthAdjust="spacing" textLength="14" x="353" y="706.917">10</text><text fill="#000000" font-family="sans-serif" font-size="13" lengthAdjust="spacing" textLength="72" x="371" y="706.917">Transfer Fee</text><line style="stroke:#181818;stroke-width:1.0;stroke-dasharray:2.0,2.0;" x1="346" x2="388" y1="742.125" y2="742.125"/><line style="stroke:#181818;stroke-width:1.0;stroke-dasharray:2.0,2.0;" x1="388" x2="388" y1="742.125" y2="755.125"/><line style="stroke:#181818;stroke-width:1.0;stroke-dasharray:2.0,2.0;" x1="347" x2="388" y1="755.125" y2="755.125"/><polygon fill="#181818" points="357,751.125,347,755.125,357,759.125,353,755.125" style="stroke:#181818;stroke-width:1.0;"/><text fill="#000000" font-family="sans-serif" font-size="13" font-weight="bold" lengthAdjust="spacing" textLength="14" x="353" y="737.2686">11</text><text fill="#000000" font-family="sans-serif" font-size="13" lengthAdjust="spacing" textLength="114" x="371" y="737.2686">create new member</text><polygon fill="#181818" points="589.5,781.4766,599.5,785.4766,589.5,789.4766,593.5,785.4766" style="stroke:#181818;stroke-width:1.0;"/><line style="stroke:#181818;stroke-width:1.0;stroke-dasharray:2.0,2.0;" x1="346" x2="595.5" y1="785.4766" y2="785.4766"/><text fill="#000000" font-family="sans-serif" font-size="13" font-weight="bold" lengthAdjust="spacing" textLength="14" x="353" y="780.6201">12</text><text fill="#000000" font-family="sans-serif" font-size="13" lengthAdjust="spacing" textLength="72" x="371" y="780.6201">Request BM</text><polygon fill="#181818" points="113,811.8281,103,815.8281,113,819.8281,109,815.8281" style="stroke:#181818;stroke-width:1.0;"/><line style="stroke:#181818;stroke-width:1.0;stroke-dasharray:2.0,2.0;" x1="107" x2="345" y1="815.8281" y2="815.8281"/><text fill="#000000" font-family="sans-serif" font-size="13" font-weight="bold" lengthAdjust="spacing" textLength="14" x="119" y="810.9717">13</text><text fill="#000000" font-family="sans-serif" font-size="13" lengthAdjust="spacing" textLength="152" x="137" y="810.9717">Emit OnPrepayment event</text><line style="stroke:#000000;stroke-width:1.0;stroke-dasharray:2.0,2.0;" x1="60" x2="649.5" y1="824.8281" y2="824.8281"/><text fill="#000000" font-family="sans-serif" font-size="11" font-weight="bold" lengthAdjust="spacing" textLength="81" x="65" y="836.2471">[Invariant fails]</text><polygon fill="#181818" points="113,858.0156,103,862.0156,113,866.0156,109,862.0156" style="stroke:#181818;stroke-width:1.0;"/><line style="stroke:#181818;stroke-width:1.0;stroke-dasharray:2.0,2.0;" x1="107" x2="345" y1="862.0156" y2="862.0156"/><text fill="#000000" font-family="sans-serif" font-size="13" font-weight="bold" lengthAdjust="spacing" textLength="14" x="119" y="857.1592">14</text><text fill="#000000" font-family="sans-serif" font-size="13" lengthAdjust="spacing" textLength="36" x="137" y="857.1592">Revert</text><line style="stroke:#000000;stroke-width:1.0;stroke-dasharray:2.0,2.0;" x1="50" x2="659.5" y1="878.0156" y2="878.0156"/><text fill="#000000" font-family="sans-serif" font-size="11" font-weight="bold" lengthAdjust="spacing" textLength="116" x="55" y="889.4346">[Is existing member]</text><polygon fill="#181818" points="113,911.2031,103,915.2031,113,919.2031,109,915.2031" style="stroke:#181818;stroke-width:1.0;"/><line style="stroke:#181818;stroke-width:1.0;stroke-dasharray:2.0,2.0;" x1="107" x2="345" y1="915.2031" y2="915.2031"/><text fill="#000000" font-family="sans-serif" font-size="13" font-weight="bold" lengthAdjust="spacing" textLength="14" x="119" y="910.3467">15</text><text fill="#000000" font-family="sans-serif" font-size="13" lengthAdjust="spacing" textLength="36" x="137" y="910.3467">Revert</text><line style="stroke:#000000;stroke-width:1.0;stroke-dasharray:2.0,2.0;" x1="40" x2="669.5" y1="931.2031" y2="931.2031"/><text fill="#000000" font-family="sans-serif" font-size="11" font-weight="bold" lengthAdjust="spacing" textLength="117" x="45" y="942.6221">[Parent is not KYCed]</text><polygon fill="#181818" points="113,964.3906,103,968.3906,113,972.3906,109,968.3906" style="stroke:#181818;stroke-width:1.0;"/><line style="stroke:#181818;stroke-width:1.0;stroke-dasharray:2.0,2.0;" x1="107" x2="345" y1="968.3906" y2="968.3906"/><text fill="#000000" font-family="sans-serif" font-size="13" font-weight="bold" lengthAdjust="spacing" textLength="14" x="119" y="963.5342">16</text><text fill="#000000" font-family="sans-serif" font-size="13" lengthAdjust="spacing" textLength="36" x="137" y="963.5342">Revert</text><line style="stroke:#000000;stroke-width:1.0;stroke-dasharray:2.0,2.0;" x1="30" x2="679.5" y1="984.3906" y2="984.3906"/><text fill="#000000" font-family="sans-serif" font-size="11" font-weight="bold" lengthAdjust="spacing" textLength="160" x="35" y="995.8096">[Contribution is out of range]</text><polygon fill="#181818" points="113,1017.5781,103,1021.5781,113,1025.5781,109,1021.5781" style="stroke:#181818;stroke-width:1.0;"/><line style="stroke:#181818;stroke-width:1.0;stroke-dasharray:2.0,2.0;" x1="107" x2="345" y1="1021.5781" y2="1021.5781"/><text fill="#000000" font-family="sans-serif" font-size="13" font-weight="bold" lengthAdjust="spacing" textLength="14" x="119" y="1016.7217">17</text><text fill="#000000" font-family="sans-serif" font-size="13" lengthAdjust="spacing" textLength="36" x="137" y="1016.7217">Revert</text><line style="stroke:#000000;stroke-width:1.0;stroke-dasharray:2.0,2.0;" x1="20" x2="689.5" y1="1037.5781" y2="1037.5781"/><text fill="#000000" font-family="sans-serif" font-size="11" font-weight="bold" lengthAdjust="spacing" textLength="138" x="25" y="1048.9971">[preJoinEnabled == false]</text><polygon fill="#181818" points="113,1070.7656,103,1074.7656,113,1078.7656,109,1074.7656" style="stroke:#181818;stroke-width:1.0;"/><line style="stroke:#181818;stroke-width:1.0;" x1="107" x2="345" y1="1074.7656" y2="1074.7656"/><text fill="#000000" font-family="sans-serif" font-size="13" font-weight="bold" lengthAdjust="spacing" textLength="14" x="119" y="1069.9092">18</text><text fill="#000000" font-family="sans-serif" font-size="13" lengthAdjust="spacing" textLength="36" x="137" y="1069.9092">Revert</text><line style="stroke:#000000;stroke-width:1.0;stroke-dasharray:2.0,2.0;" x1="10" x2="699.5" y1="1090.7656" y2="1090.7656"/><text fill="#000000" font-family="sans-serif" font-size="11" font-weight="bold" lengthAdjust="spacing" textLength="112" x="15" y="1102.1846">[Module is disabled]</text><polygon fill="#181818" points="113,1123.9531,103,1127.9531,113,1131.9531,109,1127.9531" style="stroke:#181818;stroke-width:1.0;"/><line style="stroke:#181818;stroke-width:1.0;" x1="107" x2="345" y1="1127.9531" y2="1127.9531"/><text fill="#000000" font-family="sans-serif" font-size="13" font-weight="bold" lengthAdjust="spacing" textLength="14" x="119" y="1123.0967">19</text><text fill="#000000" font-family="sans-serif" font-size="13" lengthAdjust="spacing" textLength="36" x="137" y="1123.0967">Revert</text><!--SRC=[hPLDRzim38Rl_XNShGLMOES26R1-3EY68aNGIu-CpAJQ5CgZfBJzzvDaEqvYUwYN-XHJzFEI34LYy9R3PabI5AYy5NWGgl0jlRU_uE9hilwockzj6GnTGhHVM_QYby5hosTgx-LpF1LYVnw9naFz2MW7nBWqL1OGdtHI2Vs8pDlQ3BCPU0cKZrkNVP64q0o2lEwSMiU7B9bSVZvTDnh7FdSEs7gWL-syvZLigCuR1fw3VE6YNm6iAlEMKaX6ABLJDh0VXYLneHM9eBbfFDjqZtq70RkArLb-cW6MfP1pPr_EHp-Oa4ORN9V7QL3dz9f1FMjJWhTDsASn5HeL37fgYo3qWbAEGicudUliu-gbMGbXH2_QaYt8aMnfF10U3ZBPHxlbZhSe6cFiwfdKRnSpSQxuxwX3LQRAnVjihO4b6cH59-DkliqXXnclxp-3QwP87_GOBxEBTJouvnFYcbSa68VM7kaxdP1O-czZOamlxN1uF-hgVYwe4cL1Vm8v7otJ8ibbkeJRZVOmvzgmIVrBMneRBRdDksvPeJPkUeStoeie9FxztLgBkzv4_I3TdcRMwoPz6kR3qtwYs85G5ZdUEpPuiAk1tJD1QQTIZwRUybjXj1SZu15kPcPUjsRZ3E_sx2W6Tfp4-0i0]--></g></svg>