<?xml version="1.0" encoding="us-ascii" standalone="no"?><svg xmlns="http://www.w3.org/2000/svg" xmlns:xlink="http://www.w3.org/1999/xlink" contentStyleType="text/css" height="665px" preserveAspectRatio="none" style="width:566px;height:665px;background:#FFFFFF;" version="1.1" viewBox="0 0 566 665" width="566px" zoomAndPan="magnify"><defs/><g><rect fill="none" height="436.5625" style="stroke:#000000;stroke-width:1.5;" width="549.5" x="10" y="129.9609"/><rect fill="none" height="358.0234" style="stroke:#000000;stroke-width:1.5;" width="529.5" x="20" y="155.3125"/><rect fill="none" height="279.4844" style="stroke:#000000;stroke-width:1.5;" width="509.5" x="30" y="180.6641"/><rect fill="none" height="200.9453" style="stroke:#000000;stroke-width:1.5;" width="489.5" x="40" y="206.0156"/><rect fill="none" height="48.7031" style="stroke:#000000;stroke-width:1.5;" width="303" x="216.5" y="274.7188"/><line style="stroke:#181818;stroke-width:0.5;stroke-dasharray:5.0,5.0;" x1="80" x2="80" y1="82.6094" y2="583.5234"/><line style="stroke:#181818;stroke-width:0.5;stroke-dasharray:5.0,5.0;" x1="278.5" x2="278.5" y1="82.6094" y2="583.5234"/><line style="stroke:#181818;stroke-width:0.5;stroke-dasharray:5.0,5.0;" x1="435.5" x2="435.5" y1="82.6094" y2="583.5234"/><text fill="#000000" font-family="sans-serif" font-size="14" lengthAdjust="spacing" textLength="55" x="50" y="79.5332">Backend</text><ellipse cx="80.5" cy="13.5" fill="#E2E2F0" rx="8" ry="8" style="stroke:#181818;stroke-width:0.5;"/><path d="M80.5,21.5 L80.5,48.5 M67.5,29.5 L93.5,29.5 M80.5,48.5 L67.5,63.5 M80.5,48.5 L93.5,63.5 " fill="none" style="stroke:#181818;stroke-width:0.5;"/><text fill="#000000" font-family="sans-serif" font-size="14" lengthAdjust="spacing" textLength="55" x="50" y="597.0566">Backend</text><ellipse cx="80.5" cy="608.6328" fill="#E2E2F0" rx="8" ry="8" style="stroke:#181818;stroke-width:0.5;"/><path d="M80.5,616.6328 L80.5,643.6328 M67.5,624.6328 L93.5,624.6328 M80.5,643.6328 L67.5,658.6328 M80.5,643.6328 L93.5,658.6328 " fill="none" style="stroke:#181818;stroke-width:0.5;"/><rect fill="#E2E2F0" height="31.6094" rx="2.5" ry="2.5" style="stroke:#181818;stroke-width:0.5;" width="104" x="226.5" y="50"/><text fill="#000000" font-family="sans-serif" font-size="14" lengthAdjust="spacing" textLength="90" x="233.5" y="71.5332">PrejoinModule</text><rect fill="#E2E2F0" height="31.6094" rx="2.5" ry="2.5" style="stroke:#181818;stroke-width:0.5;" width="104" x="226.5" y="582.5234"/><text fill="#000000" font-family="sans-serif" font-size="14" lengthAdjust="spacing" textLength="90" x="233.5" y="604.0566">PrejoinModule</text><rect fill="#E2E2F0" height="31.6094" rx="2.5" ry="2.5" style="stroke:#181818;stroke-width:0.5;" width="56" x="407.5" y="50"/><text fill="#000000" font-family="sans-serif" font-size="14" lengthAdjust="spacing" textLength="42" x="414.5" y="71.5332">Parent</text><rect fill="#E2E2F0" height="31.6094" rx="2.5" ry="2.5" style="stroke:#181818;stroke-width:0.5;" width="56" x="407.5" y="582.5234"/><text fill="#000000" font-family="sans-serif" font-size="14" lengthAdjust="spacing" textLength="42" x="414.5" y="604.0566">Parent</text><polygon fill="#181818" points="266.5,110.9609,276.5,114.9609,266.5,118.9609,270.5,114.9609" style="stroke:#181818;stroke-width:1.0;"/><line style="stroke:#181818;stroke-width:1.0;" x1="80.5" x2="272.5" y1="114.9609" y2="114.9609"/><text fill="#000000" font-family="sans-serif" font-size="13" font-weight="bold" lengthAdjust="spacing" textLength="7" x="87.5" y="110.1045">1</text><text fill="#000000" font-family="sans-serif" font-size="13" lengthAdjust="spacing" textLength="116" x="98.5" y="110.1045">setKYCStatus(user)</text><path d="M10,129.9609 L71,129.9609 L71,138.3125 L61,148.3125 L10,148.3125 L10,129.9609 " fill="#EEEEEE" style="stroke:#000000;stroke-width:1.5;"/><rect fill="none" height="436.5625" style="stroke:#000000;stroke-width:1.5;" width="549.5" x="10" y="129.9609"/><text fill="#000000" font-family="sans-serif" font-size="13" font-weight="bold" lengthAdjust="spacing" textLength="16" x="25" y="144.4561">alt</text><text fill="#000000" font-family="sans-serif" font-size="11" font-weight="bold" lengthAdjust="spacing" textLength="109" x="86" y="143.3799">[Module is enabled]</text><path d="M20,155.3125 L81,155.3125 L81,163.6641 L71,173.6641 L20,173.6641 L20,155.3125 " fill="#EEEEEE" style="stroke:#000000;stroke-width:1.5;"/><rect fill="none" height="358.0234" style="stroke:#000000;stroke-width:1.5;" width="529.5" x="20" y="155.3125"/><text fill="#000000" font-family="sans-serif" font-size="13" font-weight="bold" lengthAdjust="spacing" textLength="16" x="35" y="169.8076">alt</text><text fill="#000000" font-family="sans-serif" font-size="11" font-weight="bold" lengthAdjust="spacing" textLength="145" x="96" y="168.7314">[Member address is valid]</text><path d="M30,180.6641 L91,180.6641 L91,189.0156 L81,199.0156 L30,199.0156 L30,180.6641 " fill="#EEEEEE" style="stroke:#000000;stroke-width:1.5;"/><rect fill="none" height="279.4844" style="stroke:#000000;stroke-width:1.5;" width="509.5" x="30" y="180.6641"/><text fill="#000000" font-family="sans-serif" font-size="13" font-weight="bold" lengthAdjust="spacing" textLength="16" x="45" y="195.1592">alt</text><text fill="#000000" font-family="sans-serif" font-size="11" font-weight="bold" lengthAdjust="spacing" textLength="159" x="106" y="194.083">[Member is not KYC verified]</text><path d="M40,206.0156 L101,206.0156 L101,214.3672 L91,224.3672 L40,224.3672 L40,206.0156 " fill="#EEEEEE" style="stroke:#000000;stroke-width:1.5;"/><rect fill="none" height="200.9453" style="stroke:#000000;stroke-width:1.5;" width="489.5" x="40" y="206.0156"/><text fill="#000000" font-family="sans-serif" font-size="13" font-weight="bold" lengthAdjust="spacing" textLength="16" x="55" y="220.5107">alt</text><text fill="#000000" font-family="sans-serif" font-size="11" font-weight="bold" lengthAdjust="spacing" textLength="174" x="116" y="219.4346">[Member has paid contribution]</text><line style="stroke:#181818;stroke-width:1.0;" x1="278.5" x2="320.5" y1="246.7188" y2="246.7188"/><line style="stroke:#181818;stroke-width:1.0;" x1="320.5" x2="320.5" y1="246.7188" y2="259.7188"/><line style="stroke:#181818;stroke-width:1.0;" x1="279.5" x2="320.5" y1="259.7188" y2="259.7188"/><polygon fill="#181818" points="289.5,255.7188,279.5,259.7188,289.5,263.7188,285.5,259.7188" style="stroke:#181818;stroke-width:1.0;"/><text fill="#000000" font-family="sans-serif" font-size="13" font-weight="bold" lengthAdjust="spacing" textLength="7" x="285.5" y="241.8623">2</text><text fill="#000000" font-family="sans-serif" font-size="13" lengthAdjust="spacing" textLength="132" x="296.5" y="241.8623">Set KYC status to true</text><path d="M216.5,274.7188 L289.5,274.7188 L289.5,283.0703 L279.5,293.0703 L216.5,293.0703 L216.5,274.7188 " fill="#EEEEEE" style="stroke:#000000;stroke-width:1.5;"/><rect fill="none" height="48.7031" style="stroke:#000000;stroke-width:1.5;" width="303" x="216.5" y="274.7188"/><text fill="#000000" font-family="sans-serif" font-size="13" font-weight="bold" lengthAdjust="spacing" textLength="28" x="231.5" y="289.2139">loop</text><text fill="#000000" font-family="sans-serif" font-size="11" font-weight="bold" lengthAdjust="spacing" textLength="210" x="304.5" y="288.1377">[for each valid parent up until 4 layers]</text><polygon fill="#181818" points="423.5,311.4219,433.5,315.4219,423.5,319.4219,427.5,315.4219" style="stroke:#181818;stroke-width:1.0;"/><line style="stroke:#181818;stroke-width:1.0;stroke-dasharray:2.0,2.0;" x1="278.5" x2="429.5" y1="315.4219" y2="315.4219"/><text fill="#000000" font-family="sans-serif" font-size="13" font-weight="bold" lengthAdjust="spacing" textLength="7" x="285.5" y="310.5654">3</text><text fill="#000000" font-family="sans-serif" font-size="13" lengthAdjust="spacing" textLength="88" x="296.5" y="310.5654">Transfer reward</text><polygon fill="#181818" points="91.5,348.7734,81.5,352.7734,91.5,356.7734,87.5,352.7734" style="stroke:#181818;stroke-width:1.0;"/><line style="stroke:#181818;stroke-width:1.0;stroke-dasharray:2.0,2.0;" x1="85.5" x2="277.5" y1="352.7734" y2="352.7734"/><text fill="#000000" font-family="sans-serif" font-size="13" font-weight="bold" lengthAdjust="spacing" textLength="7" x="97.5" y="347.917">4</text><text fill="#000000" font-family="sans-serif" font-size="13" lengthAdjust="spacing" textLength="163" x="108.5" y="347.917">Emit OnParentReward event</text><line style="stroke:#000000;stroke-width:1.0;stroke-dasharray:2.0,2.0;" x1="40" x2="529.5" y1="361.7734" y2="361.7734"/><text fill="#000000" font-family="sans-serif" font-size="11" font-weight="bold" lengthAdjust="spacing" textLength="195" x="45" y="373.1924">[Member has not paid contribution]</text><polygon fill="#181818" points="91.5,394.9609,81.5,398.9609,91.5,402.9609,87.5,398.9609" style="stroke:#181818;stroke-width:1.0;"/><line style="stroke:#181818;stroke-width:1.0;stroke-dasharray:2.0,2.0;" x1="85.5" x2="277.5" y1="398.9609" y2="398.9609"/><text fill="#000000" font-family="sans-serif" font-size="13" font-weight="bold" lengthAdjust="spacing" textLength="7" x="97.5" y="394.1045">5</text><text fill="#000000" font-family="sans-serif" font-size="13" lengthAdjust="spacing" textLength="36" x="108.5" y="394.1045">Revert</text><line style="stroke:#000000;stroke-width:1.0;stroke-dasharray:2.0,2.0;" x1="30" x2="539.5" y1="414.9609" y2="414.9609"/><text fill="#000000" font-family="sans-serif" font-size="11" font-weight="bold" lengthAdjust="spacing" textLength="138" x="35" y="426.3799">[Member is KYC verified]</text><polygon fill="#181818" points="91.5,448.1484,81.5,452.1484,91.5,456.1484,87.5,452.1484" style="stroke:#181818;stroke-width:1.0;"/><line style="stroke:#181818;stroke-width:1.0;stroke-dasharray:2.0,2.0;" x1="85.5" x2="277.5" y1="452.1484" y2="452.1484"/><text fill="#000000" font-family="sans-serif" font-size="13" font-weight="bold" lengthAdjust="spacing" textLength="7" x="97.5" y="447.292">6</text><text fill="#000000" font-family="sans-serif" font-size="13" lengthAdjust="spacing" textLength="36" x="108.5" y="447.292">Revert</text><line style="stroke:#000000;stroke-width:1.0;stroke-dasharray:2.0,2.0;" x1="20" x2="549.5" y1="468.1484" y2="468.1484"/><text fill="#000000" font-family="sans-serif" font-size="11" font-weight="bold" lengthAdjust="spacing" textLength="156" x="25" y="479.5674">[member address is invalid]</text><polygon fill="#181818" points="91.5,501.3359,81.5,505.3359,91.5,509.3359,87.5,505.3359" style="stroke:#181818;stroke-width:1.0;"/><line style="stroke:#181818;stroke-width:1.0;stroke-dasharray:2.0,2.0;" x1="85.5" x2="277.5" y1="505.3359" y2="505.3359"/><text fill="#000000" font-family="sans-serif" font-size="13" font-weight="bold" lengthAdjust="spacing" textLength="7" x="97.5" y="500.4795">7</text><text fill="#000000" font-family="sans-serif" font-size="13" lengthAdjust="spacing" textLength="36" x="108.5" y="500.4795">Revert</text><line style="stroke:#000000;stroke-width:1.0;stroke-dasharray:2.0,2.0;" x1="10" x2="559.5" y1="521.3359" y2="521.3359"/><text fill="#000000" font-family="sans-serif" font-size="11" font-weight="bold" lengthAdjust="spacing" textLength="112" x="15" y="532.7549">[Module is disabled]</text><polygon fill="#181818" points="91.5,554.5234,81.5,558.5234,91.5,562.5234,87.5,558.5234" style="stroke:#181818;stroke-width:1.0;"/><line style="stroke:#181818;stroke-width:1.0;stroke-dasharray:2.0,2.0;" x1="85.5" x2="277.5" y1="558.5234" y2="558.5234"/><text fill="#000000" font-family="sans-serif" font-size="13" font-weight="bold" lengthAdjust="spacing" textLength="7" x="97.5" y="553.667">8</text><text fill="#000000" font-family="sans-serif" font-size="13" lengthAdjust="spacing" textLength="36" x="108.5" y="553.667">Revert</text><!--SRC=[bL8zJyCm4DtzAsw4WOsfGmSG4qAWbeNn4bzKWsD7vtCG_nuxhjAaQHNmbEZUlO-xmoZUnROYLWfhyGmFM7-HqqeTF-1k2szCdzwu5w-ZfGq4akUFnxsWn70J0_5jQhO2fGuc03ciB6a5wGqLoXA0MZE5a14zMbFgPvXKSruW2K1FR1f39zWPz801EZGQQk-4JHN5UATcwFncxY_4sLEH2qCW40_2aKQQ1P_rleCcZOgmFfGWoGQJ4uWTH2V6mZrO_24EY-OBXhAZeNq3xumkD2aQqpUoNdGFYrcdEwvk0q-j4NXrXNutS0BrsUcSXcoWwLJp1fQJ_OVmBgcmgAlUfu9furUtlIen1Qk9rFYlHhbsSOJ6JS_mJrfgZ58YZ2UlJJZT_FfaCiKl]--></g></svg>